<svg width="50" height="50" viewBox="0 0 50 50" fill="none" xmlns="http://www.w3.org/2000/svg">
<path d="M3.97414 13.3338L2.72414 15.4988C2.2639 16.2959 2.53701 17.3152 3.33414 17.7755L11.2725 22.3588C12.0696 22.819 13.0889 22.5459 13.5491 21.7488L14.7991 19.5838C15.2594 18.7867 14.9863 17.7674 14.1891 17.3071L6.25081 12.7238C5.45368 12.2636 4.43438 12.5367 3.97414 13.3338Z" fill="#00730C"/>
<path d="M19.7667 21.3583L16.6667 19.5833L14.5834 23.1916C18.0334 25.1749 17.775 25.0833 18.0917 25.0499C18.5722 25.6651 19.012 26.3109 19.4084 26.9833C19.9857 25.8261 20.6457 24.7121 21.3834 23.6499C20.8334 23.1749 20.3667 22.8166 20.025 22.5666C20.2641 22.1576 20.1521 21.6338 19.7667 21.3583Z" fill="#00730C"/>
<path d="M11.27 35.1409L3.3317 39.7243C2.53457 40.1845 2.26146 41.2038 2.7217 42.001L3.9717 44.166C4.43194 44.9631 5.45124 45.2362 6.24837 44.776L14.1867 40.1926C14.9838 39.7324 15.2569 38.7131 14.7967 37.9159L13.5467 35.7509C13.0865 34.9538 12.0672 34.6807 11.27 35.1409Z" fill="#00730C"/>
<path d="M35.8916 15.9416C31.6666 17.7416 31.9333 17.5666 30.65 18.3333C27.5833 20.1083 24.5416 21.9916 22.6333 24.7833C21.8104 26.0684 21.0646 27.4013 20.4 28.775C19.7677 30.0911 19.0026 31.3393 18.1166 32.5C17.7666 32.5 18.0666 32.35 14.6 34.35L16.6666 37.9166L19.75 36.1416C20.1398 35.8483 20.2411 35.3058 19.9833 34.8916L20.0333 34.9583C22.3386 33.208 24.3645 31.1174 26.0416 28.7583C29.2 24.4083 25.875 26.8333 36.875 20.4833L46.875 14.725C43.1691 14.2647 39.4069 14.6815 35.8916 15.9416Z" fill="#00730C"/>
<path d="M27.05 30.2083C26.0272 31.5853 24.8928 32.8758 23.6583 34.0667C25.525 36.2333 30.0083 38.975 32.375 40.1083C31.9615 42.2129 31.3619 44.2765 30.5833 46.275C30.2445 46.9685 30.3169 47.7924 30.7714 48.4163C31.2259 49.0401 31.988 49.3615 32.752 49.2515C33.5159 49.1416 34.1565 48.6183 34.4167 47.8917C35.2386 45.8903 35.8855 43.8214 36.35 41.7083C39.7245 42.8525 43.3144 43.2172 46.85 42.775L37.1833 37.1917C37.8699 32.2348 37.8699 27.2069 37.1833 22.25L33.2167 24.5417C33.564 27.9801 33.564 31.4449 33.2167 34.8833C27.3333 31.5083 28.5417 32.4083 27.05 30.2083Z" fill="#00730C"/>
<path d="M28.075 11.8C26.4083 7.15 18.1167 3.925 14.9167 6.53333C14.825 8.63333 16.9083 11.2583 20.1333 12.875C23.1417 14.375 26.2417 14.5417 27.9667 13.475C28.91 13.5959 29.865 13.5959 30.8083 13.475C31.0833 14.3083 31.35 15.1417 31.575 15.975L35.3583 14.375C35.4917 14.375 35.45 14.375 35.3583 14.15C34.95 9.7 41.6667 6.50833 41.6667 6.48333C42.4156 6.23318 42.9588 5.5811 43.0695 4.79925C43.1801 4.0174 42.8392 3.24019 42.1891 2.79202C41.539 2.34386 40.6913 2.30177 40 2.68333C37.3671 3.93296 35.0488 5.75852 33.2167 8.025C32.3231 5.91892 31.3046 3.86806 30.1667 1.88333C29.8072 1.2182 29.1156 0.800017 28.3596 0.790687C27.6036 0.781356 26.9019 1.18234 26.5261 1.8384C26.1503 2.49446 26.1595 3.30262 26.55 3.95C27.9989 6.48101 29.2391 9.12587 30.2583 11.8583C29.5306 11.9194 28.7984 11.8998 28.075 11.8Z" fill="#00730C"/>
</svg>
