<svg width="50" height="50" viewBox="0 0 50 50" fill="none" xmlns="http://www.w3.org/2000/svg">
<g clip-path="url(#clip0_673_53231)">
<path d="M29.6322 8.32813C27.9003 6.67484 25.156 6.73854 23.5031 8.47042C21.8498 10.2023 21.9131 12.9462 23.645 14.5995C25.3769 16.2528 28.1208 16.1891 29.7741 14.4572C31.4274 12.7257 31.3637 9.98142 29.6322 8.32813Z" fill="#00730C"/>
<path d="M36.9377 22.7925C36.9377 21.8514 36.2625 21.0686 35.3706 20.8997C35.5503 21.3631 35.6769 21.893 35.6769 22.4671C35.6769 23.3487 35.3778 24.1273 35.0475 24.7186C36.0946 24.6983 36.9377 23.8446 36.9377 22.7925Z" fill="#00730C"/>
<path d="M48.4936 39.931H47.3805C46.6382 39.931 45.926 39.6362 45.4011 39.1113L44.8243 38.5345V35.8512C45.1336 35.377 45.4754 34.6755 45.4754 33.8927C45.4754 32.4634 44.336 31.3049 44.336 31.3049C44.336 31.3049 43.1965 32.4634 43.1965 33.8927C43.1965 34.6759 43.5383 35.377 43.8477 35.8512V36.5195C43.7626 36.362 43.6558 36.2113 43.5227 36.0778C42.7971 35.3526 41.5558 35.4179 41.5558 35.4179C41.5558 35.4179 41.4902 36.6595 42.2154 37.3847C42.7048 37.8741 43.4281 38.0031 43.8477 38.0355V38.5345L43.2709 39.1113C42.746 39.6362 42.0338 39.931 41.2915 39.931H39.275C38.5327 39.931 37.8205 39.6362 37.2956 39.1113L37.1266 38.9419C36.6318 38.4471 35.8292 38.4471 35.3344 38.9419L35.1655 39.1113C34.6406 39.6362 33.9284 39.931 33.186 39.931H27.2961C28.299 39.4012 28.8174 38.2178 28.4718 37.0937L25.7794 28.6239C25.5108 27.7492 24.77 27.1022 23.8671 26.9538L23.3708 26.8722L19.3409 31.0935L21.6107 31.4674L23.8644 38.5093C24.0601 39.1463 24.4961 39.6426 25.042 39.931H16.4135C17.6308 39.2879 18.0554 37.7689 17.3726 36.592L12.5741 28.3225L16.2777 32.2871L22.7719 25.484L20.6589 20.3208L24.3008 25.5111C24.437 25.7053 24.6075 25.8723 24.8044 26.0043L31.6403 30.5942C32.5261 31.1893 33.7231 30.9505 34.3155 30.0685C34.8942 29.2072 34.6833 28.0494 33.8543 27.4413V24.4254C34.1633 23.9513 34.5051 23.2501 34.5051 22.467C34.5051 21.0376 33.3661 19.8791 33.3661 19.8791C33.3661 19.8791 32.2266 21.0376 32.2266 22.467C32.2266 23.2501 32.5684 23.9513 32.8778 24.4258V26.7806L27.2515 23.0029L23.8152 18.1056L26.1696 20.2365L27.7569 21.6071L31.3576 24.0249C31.1799 23.5637 31.0547 23.0369 31.0547 22.467C31.0547 21.8787 31.1883 21.3359 31.3748 20.8644H28.7755L21.5245 14.9863C20.3545 13.8694 18.5006 13.9125 17.384 15.0825L7.43871 25.6568C6.74177 26.3976 6.54226 27.531 7.08165 28.4602C7.8507 29.7858 10.1372 33.7268 11.1031 35.3915H4.11611C2.78745 35.3915 1.66478 36.4417 1.648 37.7704C1.63617 38.7065 2.15879 39.5217 2.92936 39.931H1.46489C0.635578 39.931 -0.0377157 40.6253 0.00157569 41.4664C0.0389598 42.2546 0.718357 42.8607 1.50724 42.8607H48.5352C49.3676 42.8607 50.0382 42.1664 49.9985 41.3253C49.9611 40.5372 49.2825 39.931 48.4936 39.931Z" fill="#00730C"/>
</g>
<defs>
<clipPath id="clip0_673_53231">
<rect width="50" height="50" fill="white"/>
</clipPath>
</defs>
</svg>
