<svg width="50" height="50" viewBox="0 0 50 50" fill="none" xmlns="http://www.w3.org/2000/svg">
<g clip-path="url(#clip0_673_53221)">
<path d="M20.6054 39.6975C20.6054 35.6591 17.3195 32.3733 13.2812 32.3733C9.24277 32.3733 5.95703 35.6592 5.95703 39.6975C5.95703 43.7358 9.24277 47.0217 13.2812 47.0217C17.4801 47.0217 20.6054 43.5818 20.6054 39.6975ZM11.8163 39.6975C11.8163 38.8883 12.4722 38.2327 13.2812 38.2327C14.0901 38.2327 14.746 38.8883 14.746 39.6975C14.746 40.5065 14.0901 41.1624 13.2812 41.1624C12.4722 41.1624 11.8163 40.5065 11.8163 39.6975Z" fill="#00730C"/>
<path d="M44.1406 35.303C40.909 35.303 38.2813 37.9308 38.2813 41.1624C38.2813 44.3113 40.8305 47.0217 44.1406 47.0217C47.3721 47.0217 50 44.3939 50 41.1624C50 37.853 47.3026 35.303 44.1406 35.303Z" fill="#00730C"/>
<path d="M44.1406 32.3731C44.9687 32.3731 45.7544 32.5183 46.5324 32.7456C45.6866 30.6259 43.8901 28.9518 41.5743 28.3462C22.3432 23.3719 25.0594 24.1061 23.8899 23.8044C20.9359 23.0619 17.5399 24.3365 15.8819 26.9901L14.2662 29.543C19.4523 30.0473 23.5352 34.3812 23.5352 39.6973C23.5352 41.2254 23.1737 42.7234 22.5194 44.0918H35.8689C35.8652 44.0809 35.8589 44.0712 35.8551 44.0604C35.529 43.1907 35.3516 42.1921 35.3516 41.1622C35.3515 36.3156 39.294 32.3731 44.1406 32.3731ZM27.9296 36.7676C27.9296 37.5773 27.2745 38.2325 26.4648 38.2325C25.6551 38.2325 25 37.5773 25 36.7676V33.8379C25 33.0283 25.6551 32.3731 26.4648 32.3731C27.2745 32.3731 27.9296 33.0283 27.9296 33.8379V36.7676ZM33.8867 36.7676C33.8867 37.5773 33.2315 38.2325 32.4218 38.2325C31.6122 38.2325 30.957 37.5773 30.957 36.7676V33.8379C30.957 33.0283 31.6122 32.3731 32.4218 32.3731C33.2315 32.3731 33.8867 33.0283 33.8867 33.8379V36.7676Z" fill="#00730C"/>
<path d="M39.7462 23.5842C39.7462 24.3939 40.4989 25.0491 41.3086 25.0491H47.0702C47.8799 25.0491 48.5351 24.3939 48.5351 23.5842C48.5351 22.7746 47.8799 22.1194 47.0702 22.1194H41.3086C40.4989 22.1194 39.7462 22.7746 39.7462 23.5842Z" fill="#00730C"/>
<path d="M38.5756 19.1896C38.9815 19.8924 39.8797 20.1288 40.5769 19.726L45.644 16.7964C46.345 16.3915 46.5853 15.4961 46.1804 14.7951C45.7727 14.0913 44.8758 13.8552 44.1792 14.2587L39.1121 17.1883C38.4111 17.5932 38.1708 18.4887 38.5756 19.1896Z" fill="#00730C"/>
<path d="M37.4024 15.4271L40.2331 10.3531C40.6379 9.65209 40.3976 8.75658 39.6966 8.35179C38.9957 7.94701 38.0988 8.18441 37.6954 8.88822L34.8647 13.9622C34.4598 14.6632 34.7002 15.5587 35.4011 15.9635C36.0997 16.367 36.9972 16.1287 37.4024 15.4271Z" fill="#00730C"/>
<path d="M1.00131 5.83254L8.98969 8.56086L11.1224 29.6819C12.9595 29.2857 13.7548 29.4988 14.0512 29.5213L11.8091 7.32355C11.7504 6.74992 11.3614 6.26359 10.8149 6.08186L1.92817 3.05451C1.15571 2.79699 0.331684 3.2133 0.0756291 3.9801C-0.180328 4.74826 0.234516 5.57795 1.00131 5.83254Z" fill="#00730C"/>
<path d="M32.0398 19.8549C29.1745 19.0881 27.2758 18.6147 26.0399 18.3285C24.751 17.9924 23.3848 18.2756 22.3134 19.1038C21.7434 19.5446 21.3106 20.1082 21.019 20.7393C22.1364 20.6155 23.2843 20.6318 24.6037 20.9635L35.2542 23.6743L35.2796 23.6851C35.0966 21.8463 33.8346 20.2923 32.0398 19.8549Z" fill="#00730C"/>
</g>
<defs>
<clipPath id="clip0_673_53221">
<rect width="50" height="50" fill="white"/>
</clipPath>
</defs>
</svg>
