<svg width="50" height="50" viewBox="0 0 50 50" fill="none" xmlns="http://www.w3.org/2000/svg">
<path d="M30.0158 7.23047C30.2637 7.04302 30.576 6.96173 30.8838 7.00448C31.0363 7.02565 31.183 7.07664 31.3158 7.15453C31.4485 7.23242 31.5646 7.33569 31.6574 7.45845C31.7502 7.5812 31.8179 7.72104 31.8567 7.86997C31.8955 8.0189 31.9045 8.17401 31.8834 8.32644C31.8622 8.47887 31.8112 8.62564 31.7333 8.75837C31.6554 8.8911 31.5522 9.00718 31.4294 9.1C29.6928 10.5313 28.2149 12.2503 27.0603 14.1819C26.9431 14.3798 26.8321 14.5785 26.7248 14.7776C27.5806 14.6782 28.4308 14.536 29.2724 14.3516C31.7401 13.7959 33.675 12.2661 34.4487 10.2598L37.1183 3.33594C32.9808 3.53506 29.4727 4.94971 27.4179 7.26856C26.1352 8.71602 25.455 10.449 25.3846 12.4335C27.4392 9.20068 29.9065 7.31318 30.0158 7.23047Z" fill="#00730C"/>
<path d="M28.8423 24.4434C31.2082 24.6428 33.2711 24.0235 34.9793 22.5958C37.357 20.609 38.8735 17.144 39.1932 13.0139L32.1942 15.481C30.1658 16.1959 28.5809 18.0857 27.9532 20.5361C27.8044 21.1176 27.6713 21.7568 27.5538 22.4458L32.7491 17.6954C32.8625 17.5909 32.9955 17.5098 33.1404 17.4569C33.2852 17.4039 33.4391 17.38 33.5932 17.3866C33.7473 17.3933 33.8986 17.4302 34.0383 17.4955C34.1781 17.5607 34.3036 17.6528 34.4077 17.7667C34.5118 17.8805 34.5924 18.0137 34.6449 18.1588C34.6973 18.3038 34.7206 18.4578 34.7135 18.6119C34.7063 18.7659 34.6688 18.9171 34.6031 19.0566C34.5374 19.1962 34.4448 19.3214 34.3306 19.425L28.8423 24.4434Z" fill="#00730C"/>
<path d="M19.9642 21.8489C19.5191 21.0167 19.0262 20.211 18.488 19.4357L15.5892 15.2698C15.4117 15.0147 15.3428 14.6995 15.3976 14.3936C15.4525 14.0877 15.6266 13.8161 15.8817 13.6385C16.1369 13.461 16.4521 13.3921 16.758 13.4469C17.0639 13.5018 17.3355 13.6759 17.513 13.9311L20.4121 18.097C20.7393 18.5674 21.0522 19.051 21.3509 19.5478C20.9877 13.3647 16.975 8.32314 11.855 7.75488L12.5657 13.407C12.9274 16.7305 15.0789 20.4967 19.9642 21.8489Z" fill="#00730C"/>
<path d="M42.7188 43.7292C42.5669 43.5978 42.3885 43.5006 42.1958 43.4443C42.003 43.388 41.8003 43.3739 41.6016 43.403C34.9969 44.3678 25.166 43.7656 19.1862 40.1641C18.6419 39.8363 18.1667 39.5533 17.846 39.3672C16.8553 38.7929 15.8122 38.3143 14.7308 37.9377C13.4334 37.4856 12.0691 37.2552 10.6951 37.2561C10.1036 37.2561 9.07405 37.3006 8.08528 37.4003C7.73995 37.4344 7.41998 37.5968 7.18864 37.8555C6.95731 38.1141 6.83145 38.4501 6.83596 38.7971V38.8249C6.83134 39.0182 6.86773 39.2103 6.94273 39.3886C7.01774 39.5668 7.12966 39.7272 7.27112 39.859C7.41022 39.9911 7.57596 40.0918 7.75723 40.1544C7.93849 40.2171 8.13106 40.2402 8.322 40.2222C9.13694 40.1508 10.0424 40.1065 10.6853 40.1065C12.1701 40.1055 13.6444 40.3543 15.0467 40.8424C16.1875 41.2393 17.2879 41.7439 18.333 42.3495C18.6584 42.538 19.1398 42.824 19.6885 43.1544C25.4173 46.6049 35.2689 47.2853 42.0399 46.1737C42.3018 46.1284 42.5454 46.0097 42.7425 45.8314C42.9396 45.6531 43.0819 45.4225 43.1531 45.1664C43.2242 44.9103 43.2212 44.6393 43.1443 44.3849C43.0674 44.1305 42.9199 43.9031 42.7189 43.7292H42.7188ZM20.432 42.4624C20.3697 42.5759 20.2649 42.6601 20.1406 42.6963C20.0162 42.7326 19.8826 42.718 19.7691 42.6557C19.5692 42.546 19.3724 42.4331 19.1844 42.3198C19.0735 42.2529 18.9937 42.1448 18.9625 42.0191C18.9313 41.8934 18.9514 41.7604 19.0182 41.6495C19.0851 41.5386 19.1933 41.4588 19.319 41.4276C19.4447 41.3965 19.5776 41.4165 19.6885 41.4833C19.8652 41.5898 20.0498 41.6961 20.2386 41.7995C20.3521 41.8617 20.4363 41.9665 20.4726 42.0909C20.5088 42.2152 20.4942 42.3488 20.432 42.4624ZM33.042 45.9082C33.0329 45.9082 33.0238 45.9082 33.0146 45.9076C28.711 45.6707 24.7907 44.8617 21.6797 43.5681C21.62 43.5438 21.5657 43.508 21.52 43.4626C21.4742 43.4172 21.4378 43.3633 21.413 43.3038C21.3882 43.2443 21.3754 43.1805 21.3754 43.1161C21.3754 43.0516 21.3881 42.9878 21.4128 42.9283C21.4376 42.8688 21.4739 42.8148 21.5196 42.7694C21.5653 42.724 21.6196 42.6881 21.6792 42.6637C21.7389 42.6394 21.8028 42.6271 21.8673 42.6275C21.9317 42.628 21.9954 42.6412 22.0547 42.6665C25.0651 43.918 28.8737 44.7017 33.0687 44.9327C33.1958 44.9394 33.3153 44.9955 33.4016 45.0891C33.488 45.1826 33.5344 45.3062 33.531 45.4334C33.5275 45.5607 33.4745 45.6816 33.3832 45.7703C33.2919 45.8591 33.1696 45.9087 33.0423 45.9085L33.042 45.9082Z" fill="#00730C"/>
<path d="M24.3831 28.1242C24.3113 28.325 24.2464 28.5246 24.1862 28.724C23.4223 25.0047 21.9303 21.4757 19.8509 18.4876L16.9521 14.3217C16.8781 14.2154 16.7649 14.1429 16.6375 14.12C16.51 14.0971 16.3787 14.1258 16.2724 14.1998C16.166 14.2738 16.0935 14.387 16.0706 14.5144C16.0477 14.6419 16.0765 14.7732 16.1504 14.8795L19.0493 19.0454C21.1515 22.0662 22.6332 25.6629 23.3343 29.4467C23.498 30.3298 23.6323 31.1982 23.7369 32.0419C23.753 32.4404 23.7968 32.8373 23.8682 33.2296H23.8708C23.8718 33.2351 23.874 33.24 23.8751 33.2455C23.2963 33.4439 22.731 33.6644 22.1857 33.9072C21.8995 34.0341 21.614 34.1671 21.3368 34.3015C18.5658 35.6446 16.411 36.0372 13.9161 36.4922C13.7678 36.5192 13.6189 36.5464 13.4692 36.5739C14.0037 36.6884 14.5306 36.8359 15.0468 37.0155C16.1876 37.4124 17.288 37.917 18.3331 38.5224C18.6585 38.7111 19.1399 38.997 19.6886 39.3275C23.6097 41.6895 31.7459 43.6524 40.6009 42.5527L37.999 37.0785C37.6603 36.3595 37.2363 35.6838 36.7363 35.0661C35.6996 33.7965 34.548 33.0914 32.7633 32.6344L32.5231 32.5863C31.4913 32.381 30.4417 32.2779 29.3897 32.2785C28.0142 32.2762 26.6442 32.4535 25.3146 32.8058C25.1486 32.8501 24.9839 32.8968 24.8198 32.9448C24.7879 32.6198 24.7515 32.2907 24.7107 31.9576C24.6711 30.8392 24.8691 29.6649 25.3027 28.4528C25.8779 26.8246 26.8407 25.361 28.1081 24.1882L33.8693 18.9203C33.9647 18.8328 34.0215 18.7111 34.0272 18.5818C34.033 18.4525 33.9871 18.3263 33.8998 18.2307C33.8124 18.1352 33.6908 18.0783 33.5615 18.0725C33.4322 18.0666 33.3059 18.1123 33.2103 18.1996L27.4492 23.4678C26.5575 24.2883 25.8026 25.2459 25.2128 26.3043C24.3994 24.1147 24.1239 21.9035 24.3952 19.7184C24.6424 17.7271 25.3411 15.7474 26.4721 13.8342C28.4128 10.5512 30.9861 8.57877 31.0174 8.55484C31.1195 8.47633 31.1865 8.36065 31.2037 8.23299C31.2209 8.10533 31.187 7.97604 31.1093 7.87328C31.0317 7.77052 30.9165 7.70262 30.789 7.68437C30.6615 7.66612 30.5319 7.699 30.4286 7.77584C30.3178 7.85963 27.6921 9.86568 25.649 13.3079C23.7604 16.4892 22.0606 21.5235 24.6338 27.4829C24.5445 27.6937 24.4609 27.9075 24.3831 28.1242ZM21.1585 38.1846C20.9219 38.1846 20.6905 38.1144 20.4937 37.9829C20.2969 37.8515 20.1435 37.6646 20.0529 37.4459C19.9624 37.2272 19.9387 36.9866 19.9848 36.7545C20.031 36.5223 20.145 36.3091 20.3124 36.1418C20.4797 35.9744 20.6929 35.8604 20.9251 35.8143C21.1572 35.7681 21.3978 35.7918 21.6165 35.8824C21.8351 35.9729 22.022 36.1263 22.1535 36.3231C22.285 36.5199 22.3552 36.7513 22.3552 36.9879C22.3549 37.3052 22.2287 37.6094 22.0043 37.8337C21.78 38.0581 21.4758 38.1843 21.1585 38.1846ZM36.9788 39.7713C37.1269 39.7713 37.2717 39.8151 37.3949 39.8973C37.5181 39.9796 37.6141 40.0965 37.6709 40.2333C37.7276 40.3701 37.7425 40.5206 37.7136 40.6659C37.6848 40.8112 37.6135 40.9446 37.5088 41.0494C37.4041 41.1541 37.2707 41.2255 37.1254 41.2544C36.9802 41.2833 36.8296 41.2685 36.6928 41.2118C36.556 41.1552 36.439 41.0592 36.3567 40.9361C36.2744 40.8129 36.2305 40.6682 36.2305 40.5201C36.2307 40.3216 36.3097 40.1312 36.45 39.9909C36.5904 39.8505 36.7807 39.7715 36.9792 39.7713H36.9788ZM33.3874 35.7967C33.5902 35.7967 33.7885 35.8569 33.9571 35.9695C34.1257 36.0822 34.2572 36.2424 34.3348 36.4297C34.4124 36.6171 34.4327 36.8233 34.3931 37.0222C34.3536 37.2211 34.2559 37.4038 34.1125 37.5472C33.9691 37.6906 33.7864 37.7882 33.5875 37.8278C33.3886 37.8674 33.1824 37.8471 32.995 37.7695C32.8077 37.6918 32.6475 37.5604 32.5349 37.3918C32.4222 37.2232 32.362 37.0249 32.362 36.8221C32.3624 36.5502 32.4705 36.2895 32.6629 36.0973C32.8552 35.905 33.1159 35.7969 33.3878 35.7967H33.3874ZM29.8633 39.1529C30.0912 39.1529 30.314 39.2205 30.5035 39.3471C30.693 39.4737 30.8407 39.6537 30.9279 39.8642C31.0152 40.0748 31.038 40.3065 30.9935 40.53C30.9491 40.7536 30.8393 40.9589 30.6781 41.1201C30.517 41.2812 30.3117 41.391 30.0881 41.4354C29.8646 41.4799 29.6329 41.4571 29.4223 41.3699C29.2118 41.2826 29.0318 41.1349 28.9052 40.9454C28.7786 40.7559 28.711 40.5331 28.711 40.3052C28.7113 39.9997 28.8328 39.7068 29.0489 39.4908C29.2649 39.2747 29.5578 39.1532 29.8633 39.1529ZM27.7877 33.5539C27.988 33.5538 28.1837 33.6132 28.3502 33.7244C28.5167 33.8357 28.6465 33.9938 28.7231 34.1788C28.7998 34.3638 28.8198 34.5673 28.7808 34.7637C28.7417 34.9601 28.6453 35.1405 28.5037 35.2821C28.3622 35.4237 28.1818 35.5201 27.9854 35.5592C27.789 35.5983 27.5854 35.5782 27.4004 35.5016C27.2154 35.425 27.0573 35.2952 26.9461 35.1287C26.8348 34.9622 26.7754 34.7665 26.7754 34.5663C26.7757 34.2979 26.8825 34.0406 27.0723 33.8508C27.262 33.661 27.5193 33.5542 27.7877 33.5539ZM25.7744 37.0044C25.911 37.0044 26.0445 37.0449 26.1581 37.1208C26.2717 37.1967 26.3602 37.3046 26.4124 37.4307C26.4647 37.5569 26.4784 37.6958 26.4517 37.8297C26.425 37.9637 26.3593 38.0867 26.2627 38.1833C26.1661 38.2799 26.0431 38.3456 25.9091 38.3722C25.7751 38.3989 25.6363 38.3852 25.5101 38.3329C25.384 38.2806 25.2761 38.1921 25.2003 38.0785C25.1244 37.965 25.0839 37.8315 25.0839 37.6949C25.0841 37.5118 25.1569 37.3363 25.2864 37.2069C25.4159 37.0774 25.5914 37.0046 25.7744 37.0044Z" fill="#00730C"/>
</svg>
