<svg width="50" height="50" viewBox="0 0 50 50" fill="none" xmlns="http://www.w3.org/2000/svg">
<g clip-path="url(#clip0_673_47637)">
<g filter="url(#filter0_d_673_47637)">
<path d="M21.2294 38.4054L21.1459 36.9687C21.1449 36.9527 21.1433 36.9366 21.1411 36.9207C20.9448 35.5058 20.3607 34.1728 19.4536 33.0693C18.5464 31.9659 17.3516 31.135 16.0014 30.6686L15.5344 30.5061C14.8873 30.2799 14.2993 29.9111 13.8138 29.427L11.5435 27.1566L10.7666 24.5275C10.5805 23.8375 10.1894 23.2201 9.64505 22.757C9.1007 22.2939 8.42868 22.0068 7.71774 21.9337L7.5902 21.508C7.58883 21.5033 7.58727 21.4982 7.58581 21.494C7.22389 20.3879 6.02018 19.6758 4.79352 19.7571L4.75485 19.629C4.52109 18.8433 3.99331 18.1781 3.28139 17.7718C2.56948 17.3656 1.72829 17.2495 0.932974 17.4479C0.788013 17.4839 0.662262 17.5739 0.581417 17.6995C0.500573 17.825 0.470739 17.9768 0.498013 18.1236L2.98561 31.511C2.9907 31.5383 2.99771 31.5652 3.00661 31.5915C3.59076 33.3091 4.70906 34.7947 6.19801 35.8312L11.6308 39.5745C11.6406 39.5816 11.6515 39.5884 11.6624 39.5948C12.0463 39.8238 12.3325 40.1861 12.4664 40.6126L12.8795 46.1937C12.8879 46.3088 12.9302 46.4188 13.0009 46.5099C13.0716 46.601 13.1677 46.6693 13.277 46.706L13.3888 46.7435C15.8319 47.5707 18.4765 47.589 20.9308 46.7959L21.2034 46.7086C21.3216 46.6707 21.4247 46.5962 21.4979 46.4959C21.5711 46.3956 21.6105 46.2747 21.6105 46.1506V43.0274C21.6105 41.7579 21.4989 40.3858 21.2589 38.7075C21.2453 38.6076 21.235 38.5059 21.2294 38.4054ZM9.63629 24.837C9.63756 24.8422 9.63903 24.8473 9.64059 24.8523L9.90036 25.7312C9.53637 25.5313 9.14192 25.3927 8.73288 25.3211L8.09938 23.2071C8.47058 23.3301 8.80539 23.5434 9.07367 23.828C9.34195 24.1125 9.53529 24.4592 9.63629 24.837ZM6.46998 21.8527L7.50612 25.3097C7.17292 25.3591 6.84778 25.4526 6.53932 25.588L5.14645 20.9368C5.71842 20.9931 6.29 21.3136 6.46998 21.8527ZM20.4388 45.7221C18.3474 46.3684 16.1094 46.3661 14.0193 45.7156L13.6305 40.463C13.6277 40.4236 13.6208 40.3847 13.61 40.3467C13.405 39.6168 12.9299 38.9921 12.2813 38.5995L6.86422 34.8673C5.59391 33.9825 4.63664 32.718 4.12985 31.2552L1.76481 18.526C2.18771 18.5391 2.59573 18.6851 2.93093 18.9433C3.26613 19.2015 3.51147 19.5587 3.63209 19.9642L5.51872 26.2543C5.47607 26.2933 5.43418 26.3334 5.39303 26.3744C5.33708 26.4304 5.29306 26.4972 5.26363 26.5707C5.2342 26.6442 5.21996 26.7228 5.22179 26.802C5.22361 26.8811 5.24146 26.9591 5.27425 27.0312C5.30704 27.1032 5.35409 27.1679 5.41256 27.2213L8.13395 29.7071C8.92644 30.4313 9.65122 31.2262 10.2993 32.0821C10.3455 32.144 10.4035 32.1962 10.47 32.2357C10.5365 32.2751 10.6101 32.301 10.6866 32.3118C10.7631 32.3227 10.841 32.3183 10.9158 32.2989C10.9907 32.2795 11.0609 32.2455 11.1225 32.1989C11.1841 32.1523 11.2359 32.0939 11.2749 32.0271C11.3139 31.9604 11.3393 31.8866 11.3496 31.81C11.3599 31.7334 11.355 31.6555 11.3351 31.5809C11.3152 31.5062 11.2807 31.4362 11.2337 31.3749C10.5425 30.4621 9.76953 29.6143 8.92438 28.842L6.70895 26.8188C7.21169 26.5128 7.80259 26.3843 8.38703 26.4539C8.97147 26.5235 9.51564 26.7873 9.93239 27.2029L12.9851 30.2555C13.5956 30.8645 14.3351 31.3284 15.1491 31.613L15.6161 31.7755C16.7588 32.1701 17.7706 32.8724 18.54 33.8049C19.3094 34.7375 19.8067 35.8642 19.9771 37.0611L20.0591 38.473C20.0668 38.6059 20.0803 38.7407 20.0993 38.8734C20.3307 40.4955 20.4386 41.8154 20.4386 43.0277L20.4388 45.7221Z" fill="white"/>
</g>
<g filter="url(#filter1_d_673_47637)">
<path d="M49.0669 17.4479C48.2717 17.2496 47.4306 17.3655 46.7188 17.7716C46.0069 18.1778 45.479 18.8428 45.2452 19.6283L45.2061 19.7575C43.9797 19.6764 42.7758 20.3883 42.4137 21.4944C42.4122 21.499 42.4107 21.5037 42.4093 21.5084L42.2822 21.9337C41.5713 22.0068 40.8993 22.2938 40.3549 22.7569C39.8106 23.2199 39.4195 23.8372 39.2333 24.5271L38.4563 27.1563L36.1861 29.4267C35.7006 29.9107 35.1127 30.2795 34.4656 30.5058L33.9984 30.6683C32.6482 31.1346 31.4534 31.9655 30.5463 33.069C29.6392 34.1724 29.0551 35.5054 28.8588 36.9203C28.8566 36.9362 28.855 36.9523 28.854 36.9684L28.7705 38.4055C28.7649 38.5056 28.7546 38.6072 28.7404 38.7076C28.5008 40.3858 28.3888 41.7584 28.3888 43.0274V46.1502C28.3888 46.2724 28.4271 46.3916 28.4982 46.4911C28.5693 46.5905 28.6698 46.6652 28.7855 46.7047C31.2651 47.5456 33.9498 47.564 36.4407 46.757L36.5933 46.7072C36.7017 46.6718 36.7975 46.6056 36.8688 46.5166C36.9401 46.4276 36.9839 46.3197 36.9948 46.2061L37.5311 40.618C37.6642 40.189 37.9512 39.8244 38.3369 39.5944C38.3478 39.5881 38.3582 39.5812 38.3685 39.5741L43.8033 35.8302C45.2915 34.7939 46.4093 33.3088 46.9933 31.5919C47.0022 31.5656 47.0092 31.5387 47.0143 31.5114L49.5019 18.1236C49.5292 17.9768 49.4993 17.8251 49.4185 17.6995C49.3376 17.5739 49.2119 17.4839 49.0669 17.4479ZM43.5298 21.8522C43.7098 21.3129 44.2818 20.9923 44.8536 20.9361L43.5097 25.4298L43.4609 25.5879C43.1524 25.4526 42.8273 25.359 42.4941 25.3097L43.5298 21.8522ZM40.3593 24.8523C40.3609 24.8474 40.3623 24.8426 40.3636 24.837C40.4647 24.4593 40.658 24.1126 40.9263 23.8281C41.1946 23.5437 41.5294 23.3304 41.9005 23.2074L41.2669 25.3215C40.8579 25.3932 40.4635 25.5318 40.0995 25.7316L40.3593 24.8523ZM45.8699 31.2553C45.3634 32.7175 44.4067 33.9816 43.137 34.8663L37.7186 38.5995C37.07 38.9922 36.5949 39.6168 36.3899 40.3468C36.3802 40.3806 36.3737 40.4152 36.3703 40.4502L35.8655 45.7101C33.8103 46.3296 31.6187 46.3341 29.561 45.7229V43.0274C29.561 41.8151 29.6684 40.4952 29.9003 38.8732C29.9193 38.7403 29.9328 38.6056 29.9405 38.4728L30.0225 37.0605C30.1929 35.8636 30.6902 34.7369 31.4596 33.8044C32.229 32.8719 33.2407 32.1696 34.3834 31.7749L34.8506 31.6124C35.6645 31.3278 36.404 30.8639 37.0145 30.255L40.0672 27.2024C40.484 26.7868 41.0281 26.5231 41.6126 26.4534C42.197 26.3838 42.7879 26.5122 43.2907 26.8183L41.0754 28.8417C40.2303 29.6141 39.4573 30.4619 38.7661 31.3746C38.7191 31.4359 38.6846 31.5059 38.6647 31.5806C38.6448 31.6553 38.6399 31.7332 38.6502 31.8097C38.6605 31.8863 38.6859 31.9601 38.7249 32.0269C38.7639 32.0936 38.8157 32.152 38.8773 32.1986C38.9389 32.2453 39.0091 32.2793 39.084 32.2986C39.1588 32.318 39.2367 32.3224 39.3132 32.3116C39.3897 32.3007 39.4633 32.2748 39.5298 32.2354C39.5963 32.196 39.6543 32.1438 39.7005 32.0818C40.3486 31.226 41.0734 30.431 41.8659 29.7068L44.5877 27.2207C44.6462 27.1673 44.6932 27.1026 44.7259 27.0305C44.7587 26.9584 44.7765 26.8805 44.7783 26.8013C44.78 26.7222 44.7658 26.6435 44.7363 26.57C44.7068 26.4965 44.6628 26.4298 44.6068 26.3738C44.5657 26.3326 44.5238 26.2925 44.4811 26.2536L46.3678 19.9635C46.4884 19.558 46.7338 19.2008 47.0689 18.9426C47.4041 18.6845 47.8121 18.5385 48.235 18.5255L45.8699 31.2553Z" fill="white"/>
</g>
<g filter="url(#filter2_d_673_47637)">
<path d="M33.2933 13.9335C35.0159 12.5207 36.06 10.5568 36.3128 8.25398L36.9396 3.2862C36.9503 3.20158 36.9424 3.11564 36.9164 3.0344C36.8904 2.95316 36.847 2.87857 36.7892 2.81585C36.7314 2.75312 36.6606 2.70377 36.5818 2.67124C36.5029 2.63871 36.4179 2.62379 36.3327 2.62751C31.1846 2.85212 27.1467 8.02605 27.3315 14.1607L27.3706 15.4567C26.7663 16.6633 26.2588 17.9159 25.8527 19.2027C25.5254 18.4464 25.1017 17.7356 24.592 17.088C24.4768 15.9028 24.2768 14.7273 23.9933 13.5708C23.4109 11.304 21.9117 9.54626 19.9829 8.86892L13.8359 6.70964C13.7456 6.6779 13.6488 6.66879 13.5541 6.68311C13.4594 6.69743 13.3697 6.73473 13.2928 6.79176C13.2159 6.84879 13.1541 6.9238 13.1129 7.01024C13.0716 7.09668 13.0522 7.1919 13.0563 7.28757C13.2194 11.0953 14.5827 14.3405 16.7966 16.191C18.1663 17.3359 19.8367 17.9253 21.6823 17.9253C22.0909 17.9247 22.4991 17.8969 22.904 17.842L23.6583 17.7952C24.2263 18.5137 24.6734 19.3201 24.9818 20.1826C25.3802 21.2919 25.5228 22.3584 25.4087 23.3589H19.2891C19.2062 23.3588 19.1242 23.3764 19.0485 23.4105C18.9729 23.4445 18.9053 23.4943 18.8503 23.5564C18.7953 23.6185 18.7541 23.6916 18.7295 23.7708C18.7049 23.85 18.6973 23.9335 18.7074 24.0159L19.5207 30.6727C19.538 30.8148 19.6068 30.9455 19.7139 31.0404C19.8211 31.1352 19.9592 31.1876 20.1023 31.1876H29.8972C30.0403 31.1876 30.1785 31.1352 30.2856 31.0404C30.3928 30.9455 30.4615 30.8148 30.4789 30.6727L31.2922 24.0159C31.3022 23.9335 31.2947 23.85 31.2701 23.7708C31.2454 23.6916 31.2042 23.6185 31.1492 23.5564C31.0943 23.4943 31.0267 23.4445 30.9511 23.4105C30.8754 23.3764 30.7934 23.3588 30.7104 23.3589H26.5863C26.6469 22.6988 26.6203 22.0337 26.5073 21.3805C26.8581 19.5658 27.562 17.7178 28.367 16.0807C30.2125 15.7883 31.9554 15.0307 33.2933 13.9335ZM35.6859 3.86511L35.15 8.11218L35.1488 8.12195C34.7254 11.9989 31.8984 14.0295 29.0719 14.743C29.4924 13.9952 29.9199 13.3173 30.3233 12.7394L32.6398 9.42273C32.7279 9.2953 32.762 9.13816 32.7346 8.98568C32.7071 8.8332 32.6204 8.6978 32.4934 8.60909C32.3664 8.52038 32.2094 8.48558 32.0568 8.51231C31.9042 8.53905 31.7684 8.62513 31.6791 8.75173L29.3626 12.0684C29.0841 12.4673 28.7944 12.9125 28.5032 13.3941C28.6468 8.50603 31.7102 4.45271 35.6854 3.86492L35.6859 3.86511ZM18.9785 11.8068C18.8636 11.7021 18.7119 11.6474 18.5566 11.6546C18.4014 11.6619 18.2554 11.7305 18.1507 11.8453C18.046 11.9602 17.9913 12.112 17.9985 12.2672C18.0058 12.4224 18.0744 12.5685 18.1892 12.6731L22.6058 16.6966C20.6429 16.9274 18.9415 16.4567 17.548 15.2921C15.7529 13.7915 14.5868 11.2054 14.2878 8.11062L19.5945 9.97429C21.1534 10.5218 22.3734 11.9752 22.8583 13.8621C22.998 14.4058 23.1205 15.0134 23.2256 15.6758L18.9785 11.8068ZM30.0488 24.5307L29.3788 30.0157H20.621L19.9511 24.5307H30.0488Z" fill="white"/>
</g>
</g>
<defs>
<filter id="filter0_d_673_47637" x="-9.51184" y="7.35327" width="41.1223" height="50.0244" filterUnits="userSpaceOnUse" color-interpolation-filters="sRGB">
<feFlood flood-opacity="0" result="BackgroundImageFix"/>
<feColorMatrix in="SourceAlpha" type="matrix" values="0 0 0 0 0 0 0 0 0 0 0 0 0 0 0 0 0 0 127 0" result="hardAlpha"/>
<feOffset/>
<feGaussianBlur stdDeviation="5"/>
<feComposite in2="hardAlpha" operator="out"/>
<feColorMatrix type="matrix" values="0 0 0 0 0 0 0 0 0 0 0 0 0 0 0 0 0 0 0.25 0"/>
<feBlend mode="normal" in2="BackgroundImageFix" result="effect1_dropShadow_673_47637"/>
<feBlend mode="normal" in="SourceGraphic" in2="effect1_dropShadow_673_47637" result="shape"/>
</filter>
<filter id="filter1_d_673_47637" x="18.3888" y="7.35327" width="41.1229" height="49.9958" filterUnits="userSpaceOnUse" color-interpolation-filters="sRGB">
<feFlood flood-opacity="0" result="BackgroundImageFix"/>
<feColorMatrix in="SourceAlpha" type="matrix" values="0 0 0 0 0 0 0 0 0 0 0 0 0 0 0 0 0 0 127 0" result="hardAlpha"/>
<feOffset/>
<feGaussianBlur stdDeviation="5"/>
<feComposite in2="hardAlpha" operator="out"/>
<feColorMatrix type="matrix" values="0 0 0 0 0 0 0 0 0 0 0 0 0 0 0 0 0 0 0.25 0"/>
<feBlend mode="normal" in2="BackgroundImageFix" result="effect1_dropShadow_673_47637"/>
<feBlend mode="normal" in="SourceGraphic" in2="effect1_dropShadow_673_47637" result="shape"/>
</filter>
<filter id="filter2_d_673_47637" x="3.05579" y="-7.37305" width="43.8884" height="48.5605" filterUnits="userSpaceOnUse" color-interpolation-filters="sRGB">
<feFlood flood-opacity="0" result="BackgroundImageFix"/>
<feColorMatrix in="SourceAlpha" type="matrix" values="0 0 0 0 0 0 0 0 0 0 0 0 0 0 0 0 0 0 127 0" result="hardAlpha"/>
<feOffset/>
<feGaussianBlur stdDeviation="5"/>
<feComposite in2="hardAlpha" operator="out"/>
<feColorMatrix type="matrix" values="0 0 0 0 0 0 0 0 0 0 0 0 0 0 0 0 0 0 0.25 0"/>
<feBlend mode="normal" in2="BackgroundImageFix" result="effect1_dropShadow_673_47637"/>
<feBlend mode="normal" in="SourceGraphic" in2="effect1_dropShadow_673_47637" result="shape"/>
</filter>
<clipPath id="clip0_673_47637">
<rect width="50" height="50" fill="white"/>
</clipPath>
</defs>
</svg>
