<svg width="50" height="50" viewBox="0 0 50 50" fill="none" xmlns="http://www.w3.org/2000/svg">
<g clip-path="url(#clip0_673_47641)">
<g filter="url(#filter0_d_673_47641)">
<path d="M48.5352 17.2591H43.6669C42.9172 7.6167 34.8314 0 25 0C15.1686 0 7.08281 7.6167 6.33311 17.2591H1.46484C0.655859 17.2591 0 17.9149 0 18.7239V34.4141C0 35.223 0.655859 35.8789 1.46484 35.8789H7.74092C8.5499 35.8789 9.20576 35.223 9.20576 34.4141V18.7239C9.20576 10.0149 16.291 2.92969 25 2.92969C33.709 2.92969 40.7942 10.0149 40.7942 18.7239V34.4141C40.7942 39.6624 36.5243 43.9323 31.276 43.9323H29.3625C28.7491 42.1105 27.0259 40.7943 25 40.7943C22.462 40.7943 20.3971 42.8592 20.3971 45.3972C20.3971 47.9352 22.462 50 25 50C27.0259 50 28.7491 48.6838 29.3625 46.862H31.276C37.6441 46.862 42.91 42.0549 43.6373 35.8789H48.5352C49.3441 35.8789 50 35.223 50 34.4141V18.7239C50 17.9149 49.3441 17.2591 48.5352 17.2591ZM6.27607 32.9492H2.92969V20.1888H6.27607V32.9492ZM25 47.0703C24.0774 47.0703 23.3268 46.3197 23.3268 45.3972C23.3268 44.4746 24.0774 43.724 25 43.724C25.9226 43.724 26.6732 44.4746 26.6732 45.3972C26.6732 46.3197 25.9226 47.0703 25 47.0703ZM47.0703 32.9492H43.7239V20.1888H47.0703V32.9492Z" fill="white"/>
</g>
<g filter="url(#filter1_d_673_47641)">
<path d="M35.7593 17.3706C35.2121 17.1439 34.582 17.2691 34.163 17.688C34.1629 17.688 29.5895 22.26 27.4211 24.4268C26.4472 25.406 25.8887 26.7587 25.8887 28.138C25.8887 28.947 26.5445 29.6029 27.3535 29.6029H33.7338V32.845C33.7338 33.654 34.3896 34.3099 35.1986 34.3099C36.0076 34.3099 36.6635 33.654 36.6635 32.845V29.6029H36.7676C37.5766 29.6029 38.2324 28.947 38.2324 28.138C38.2324 27.329 37.5766 26.6732 36.7676 26.6732H36.6635V18.724C36.6635 18.1316 36.3065 17.5975 35.7593 17.3706ZM33.7338 26.6732H29.3365C29.3863 26.6115 29.4393 26.5523 29.4952 26.4959C30.5924 25.3995 32.3083 23.6845 33.7338 22.2595V26.6732Z" fill="white"/>
</g>
<g filter="url(#filter2_d_673_47641)">
<path d="M23.3269 32.8452C23.3269 32.0362 22.671 31.3804 21.862 31.3804H16C16.0497 31.3187 16.1026 31.2594 16.1586 31.2031C18.3239 29.0394 22.8977 24.4671 22.8977 24.4671C23.1725 24.1924 23.327 23.8197 23.327 23.4312V22.6467C23.327 19.6761 20.9103 17.2593 17.9396 17.2593C14.9396 17.2593 12.5522 19.6901 12.5522 22.645V22.6466C12.5522 23.4556 13.2081 24.1106 14.0171 24.1106C14.8261 24.1106 15.4819 23.454 15.4819 22.645C15.4819 21.3022 16.5631 20.189 17.9396 20.189C19.2948 20.189 20.3973 21.2915 20.3973 22.6467V22.8242C19.2095 24.0116 15.85 27.3698 14.0846 29.1341C13.1106 30.1133 12.5522 31.466 12.5522 32.8452C12.5522 33.6542 13.2081 34.3101 14.0171 34.3101H21.8621C22.671 34.3101 23.3269 33.6543 23.3269 32.8452Z" fill="white"/>
</g>
</g>
<defs>
<filter id="filter0_d_673_47641" x="-10" y="-6" width="70" height="70" filterUnits="userSpaceOnUse" color-interpolation-filters="sRGB">
<feFlood flood-opacity="0" result="BackgroundImageFix"/>
<feColorMatrix in="SourceAlpha" type="matrix" values="0 0 0 0 0 0 0 0 0 0 0 0 0 0 0 0 0 0 127 0" result="hardAlpha"/>
<feOffset dy="4"/>
<feGaussianBlur stdDeviation="5"/>
<feComposite in2="hardAlpha" operator="out"/>
<feColorMatrix type="matrix" values="0 0 0 0 0 0 0 0 0 0 0 0 0 0 0 0 0 0 0.2 0"/>
<feBlend mode="normal" in2="BackgroundImageFix" result="effect1_dropShadow_673_47641"/>
<feBlend mode="normal" in="SourceGraphic" in2="effect1_dropShadow_673_47641" result="shape"/>
</filter>
<filter id="filter1_d_673_47641" x="15.8887" y="11.259" width="32.3438" height="37.0508" filterUnits="userSpaceOnUse" color-interpolation-filters="sRGB">
<feFlood flood-opacity="0" result="BackgroundImageFix"/>
<feColorMatrix in="SourceAlpha" type="matrix" values="0 0 0 0 0 0 0 0 0 0 0 0 0 0 0 0 0 0 127 0" result="hardAlpha"/>
<feOffset dy="4"/>
<feGaussianBlur stdDeviation="5"/>
<feComposite in2="hardAlpha" operator="out"/>
<feColorMatrix type="matrix" values="0 0 0 0 0 0 0 0 0 0 0 0 0 0 0 0 0 0 0.2 0"/>
<feBlend mode="normal" in2="BackgroundImageFix" result="effect1_dropShadow_673_47641"/>
<feBlend mode="normal" in="SourceGraphic" in2="effect1_dropShadow_673_47641" result="shape"/>
</filter>
<filter id="filter2_d_673_47641" x="2.55225" y="11.2593" width="30.7747" height="37.0508" filterUnits="userSpaceOnUse" color-interpolation-filters="sRGB">
<feFlood flood-opacity="0" result="BackgroundImageFix"/>
<feColorMatrix in="SourceAlpha" type="matrix" values="0 0 0 0 0 0 0 0 0 0 0 0 0 0 0 0 0 0 127 0" result="hardAlpha"/>
<feOffset dy="4"/>
<feGaussianBlur stdDeviation="5"/>
<feComposite in2="hardAlpha" operator="out"/>
<feColorMatrix type="matrix" values="0 0 0 0 0 0 0 0 0 0 0 0 0 0 0 0 0 0 0.2 0"/>
<feBlend mode="normal" in2="BackgroundImageFix" result="effect1_dropShadow_673_47641"/>
<feBlend mode="normal" in="SourceGraphic" in2="effect1_dropShadow_673_47641" result="shape"/>
</filter>
<clipPath id="clip0_673_47641">
<rect width="50" height="50" fill="white"/>
</clipPath>
</defs>
</svg>
