<svg width="50" height="50" viewBox="0 0 50 50" fill="none" xmlns="http://www.w3.org/2000/svg">
<g clip-path="url(#clip0_673_47624)">
<g filter="url(#filter0_d_673_47624)">
<path d="M48.5787 22.7443L44.1678 27.1552L37.0128 20.0001L41.4236 15.5892L40.2453 14.4109L35.2452 19.4109L31.3227 23.3335H18.6792L14.7567 19.4109L9.75664 14.4109L8.57829 15.5892L12.9892 20.0001L5.8341 27.1552L1.42322 22.7443L0.244873 23.9227L5.24493 28.9227L9.41164 33.0894L13.8283 37.4828L13.1617 38.1495C12.1505 39.1495 12.1416 40.7799 13.1416 41.7911C13.1482 41.7978 13.1549 41.8045 13.1617 41.8112C13.6259 42.2712 14.2468 42.539 14.9 42.5612C14.9241 43.2132 15.1966 43.8312 15.6617 44.2887C16.1262 44.7484 16.7469 45.0162 17.4001 45.0387C17.4255 45.6917 17.7002 46.3103 18.1676 46.7671C18.632 47.2267 19.2528 47.4946 19.9059 47.5171C19.93 48.1691 20.2025 48.7871 20.6676 49.2446C21.6855 50.2502 23.323 50.2502 24.341 49.2446L25.001 48.5837L25.661 49.2396C26.678 50.2547 28.3252 50.2532 29.3403 49.2362C29.8012 48.7745 30.0718 48.1564 30.0985 47.5046C30.7527 47.4809 31.3737 47.2113 31.8377 46.7496C32.3026 46.2892 32.5747 45.6691 32.5985 45.0154C33.2528 44.9914 33.8739 44.7215 34.3377 44.2595C34.8026 43.7992 35.0747 43.1791 35.0986 42.5253C36.5291 42.476 37.6487 41.2763 37.5992 39.8457C37.5765 39.1878 37.3042 38.5631 36.8378 38.0986L36.2061 37.4695L40.5886 33.0869L44.7553 28.9202L49.7554 23.9202L48.5787 22.7443ZM7.01244 28.3335L14.1675 21.1785L17.1559 24.1668L10.0008 31.3219L7.01244 28.3335ZM15.6675 40.6262C15.2992 40.9941 14.7025 40.9941 14.3342 40.6262C13.9766 40.2737 13.9724 39.698 14.3249 39.3404C14.3279 39.3373 14.3311 39.3342 14.3342 39.3311L15.0117 38.6595L16.3342 39.9662L15.6675 40.6262ZM18.1567 43.107C17.7889 43.4664 17.2012 43.4657 16.8342 43.1054C16.4764 42.7518 16.4729 42.1751 16.8265 41.8172C16.8291 41.8146 16.8316 41.812 16.8342 41.8095L17.5084 41.1428L18.8234 42.4495L18.1567 43.107ZM20.6676 45.5837C20.2989 45.9507 19.7029 45.9507 19.3342 45.5837C18.9766 45.2312 18.9725 44.6556 19.325 44.298C19.328 44.2948 19.3311 44.2917 19.3342 44.2887L20.0059 43.622L21.3201 44.9287L20.6676 45.5837ZM23.1676 48.0621C22.7997 48.4247 22.2089 48.4247 21.8409 48.0621C21.4833 47.7096 21.4792 47.1339 21.8317 46.7763C21.8347 46.7732 21.8378 46.7701 21.8409 46.7671L22.5076 46.1046L23.8218 47.4112L23.1676 48.0621ZM35.669 40.5866C35.6674 40.5881 35.666 40.5896 35.6644 40.5912H35.6677C35.3015 40.9547 34.7106 40.9547 34.3444 40.5912L33.0944 39.3461C32.7683 39.0212 32.2405 39.0222 31.9156 39.3482C31.5907 39.6743 31.5917 40.2021 31.9177 40.527L33.1677 41.772C33.5293 42.131 33.5313 42.7151 33.1723 43.0766C33.1707 43.0782 33.1693 43.0796 33.1677 43.0812C32.8015 43.4447 32.2106 43.4447 31.8444 43.0812L30.5944 41.8362C30.2683 41.5113 29.7405 41.5122 29.4156 41.8383C29.0907 42.1643 29.0916 42.6921 29.4177 43.017L30.6677 44.262C31.0293 44.621 31.0312 45.2052 30.6723 45.5666C30.6707 45.5682 30.6693 45.5697 30.6677 45.5712C30.3014 45.9348 29.7106 45.9348 29.3443 45.5712L28.0943 44.3262C27.7683 44.0013 27.2405 44.0022 26.9156 44.3283C26.5907 44.6543 26.5916 45.1821 26.9177 45.507L28.1677 46.7521C28.5292 47.111 28.5312 47.6952 28.1722 48.0567C28.1707 48.0582 28.1692 48.0597 28.1677 48.0612C27.801 48.4245 27.2102 48.4245 26.8435 48.0612L11.1808 32.5002L18.6809 25.0002H21.3568L15.24 31.2602C14.921 31.5867 14.924 32.1091 15.2467 32.4319C16.2795 33.475 17.6663 34.0924 19.1326 34.1619C20.608 34.2401 22.0473 33.6878 23.0918 32.6427C23.1287 32.6063 23.1618 32.5664 23.1909 32.5236L23.4926 32.0811C25.2921 33.4998 27.6379 34.0261 29.871 33.5119L35.6644 39.282C36.0259 39.6409 36.028 40.2251 35.669 40.5866ZM35.0319 36.2961L31.536 32.8144L32.1677 32.3336C32.1974 32.3104 32.2252 32.2851 32.251 32.2577L33.0844 31.4244L31.906 30.2461L31.1135 31.0386L30.3927 31.5819C28.1677 32.5337 25.5856 32.0019 23.9176 30.2486C23.5922 29.923 23.0646 29.923 22.7391 30.2483C22.7024 30.285 22.6693 30.3249 22.6401 30.3677L21.8526 31.5202C21.1404 32.1944 20.1837 32.5484 19.2042 32.5002C18.4382 32.4608 17.6975 32.2123 17.0625 31.7819L23.6851 25.0002H31.3227L38.8228 32.5002L35.0319 36.2961ZM40.0011 31.3219L32.846 24.1668L35.8344 21.1785L42.9895 28.3335L40.0011 31.3219Z" fill="white"/>
</g>
<g filter="url(#filter1_d_673_47624)">
<path d="M10.834 27.5002H9.16736V29.1669H10.834V27.5002Z" fill="white"/>
</g>
<g filter="url(#filter2_d_673_47624)">
<path d="M40.8344 27.5002H39.1677V29.1669H40.8344V27.5002Z" fill="white"/>
</g>
<g filter="url(#filter3_d_673_47624)">
<path d="M26.6676 15.0002C30.3478 14.996 33.3301 12.0137 33.3343 8.33342C33.3343 7.87321 32.9612 7.50008 32.501 7.50008H30.8343C28.918 7.50112 27.0955 8.32915 25.8342 9.77177V6.66674H26.6676C29.8877 6.66309 32.4973 4.05348 32.501 0.833342C32.501 0.373129 32.1278 0 31.6676 0H30.0009C27.9502 0.0032292 26.0517 1.08314 25.0009 2.8442C23.95 1.08314 22.0516 0.0032292 20.0008 0H18.3342C17.874 0 17.5008 0.373129 17.5008 0.833342C17.5045 4.05348 20.1141 6.66309 23.3342 6.66674H24.1676V9.77177C22.9063 8.32915 21.0838 7.50112 19.1675 7.50008H17.5008C17.0406 7.50008 16.6675 7.87321 16.6675 8.33342C16.6716 12.0137 19.654 14.996 23.3342 15.0002H24.1676V16.3218L18.8225 21.6669H21.1792L25.0009 17.8452L28.8226 21.6669H31.1793L25.8342 16.3218V15.0002H26.6676ZM30.8343 9.16676H31.5985C31.1886 11.571 29.1065 13.3305 26.6676 13.3335H25.9034C26.3132 10.9293 28.3953 9.16978 30.8343 9.16676ZM30.0009 1.66668H30.7509C30.3525 3.60556 28.647 4.99786 26.6676 5.00005H25.9176C26.3159 3.06118 28.0215 1.66887 30.0009 1.66668ZM23.3342 5.00005C21.3548 4.99786 19.6493 3.60556 19.2508 1.66668H20.0008C21.9802 1.66887 23.6858 3.06118 24.0842 5.00005H23.3342ZM23.3342 13.3335C20.8953 13.3305 18.8132 11.571 18.4033 9.16676H19.1675C21.6064 9.16978 23.6885 10.9293 24.0984 13.3335H23.3342Z" fill="white"/>
</g>
</g>
<defs>
<filter id="filter0_d_673_47624" x="-9.75513" y="8.41089" width="69.5105" height="55.5891" filterUnits="userSpaceOnUse" color-interpolation-filters="sRGB">
<feFlood flood-opacity="0" result="BackgroundImageFix"/>
<feColorMatrix in="SourceAlpha" type="matrix" values="0 0 0 0 0 0 0 0 0 0 0 0 0 0 0 0 0 0 127 0" result="hardAlpha"/>
<feOffset dy="4"/>
<feGaussianBlur stdDeviation="5"/>
<feComposite in2="hardAlpha" operator="out"/>
<feColorMatrix type="matrix" values="0 0 0 0 0 0 0 0 0 0 0 0 0 0 0 0 0 0 0.2 0"/>
<feBlend mode="normal" in2="BackgroundImageFix" result="effect1_dropShadow_673_47624"/>
<feBlend mode="normal" in="SourceGraphic" in2="effect1_dropShadow_673_47624" result="shape"/>
</filter>
<filter id="filter1_d_673_47624" x="-0.832642" y="21.5002" width="21.6666" height="21.6667" filterUnits="userSpaceOnUse" color-interpolation-filters="sRGB">
<feFlood flood-opacity="0" result="BackgroundImageFix"/>
<feColorMatrix in="SourceAlpha" type="matrix" values="0 0 0 0 0 0 0 0 0 0 0 0 0 0 0 0 0 0 127 0" result="hardAlpha"/>
<feOffset dy="4"/>
<feGaussianBlur stdDeviation="5"/>
<feComposite in2="hardAlpha" operator="out"/>
<feColorMatrix type="matrix" values="0 0 0 0 0 0 0 0 0 0 0 0 0 0 0 0 0 0 0.2 0"/>
<feBlend mode="normal" in2="BackgroundImageFix" result="effect1_dropShadow_673_47624"/>
<feBlend mode="normal" in="SourceGraphic" in2="effect1_dropShadow_673_47624" result="shape"/>
</filter>
<filter id="filter2_d_673_47624" x="29.1677" y="21.5002" width="21.6666" height="21.6667" filterUnits="userSpaceOnUse" color-interpolation-filters="sRGB">
<feFlood flood-opacity="0" result="BackgroundImageFix"/>
<feColorMatrix in="SourceAlpha" type="matrix" values="0 0 0 0 0 0 0 0 0 0 0 0 0 0 0 0 0 0 127 0" result="hardAlpha"/>
<feOffset dy="4"/>
<feGaussianBlur stdDeviation="5"/>
<feComposite in2="hardAlpha" operator="out"/>
<feColorMatrix type="matrix" values="0 0 0 0 0 0 0 0 0 0 0 0 0 0 0 0 0 0 0.2 0"/>
<feBlend mode="normal" in2="BackgroundImageFix" result="effect1_dropShadow_673_47624"/>
<feBlend mode="normal" in="SourceGraphic" in2="effect1_dropShadow_673_47624" result="shape"/>
</filter>
<filter id="filter3_d_673_47624" x="6.66748" y="-6" width="36.6669" height="41.667" filterUnits="userSpaceOnUse" color-interpolation-filters="sRGB">
<feFlood flood-opacity="0" result="BackgroundImageFix"/>
<feColorMatrix in="SourceAlpha" type="matrix" values="0 0 0 0 0 0 0 0 0 0 0 0 0 0 0 0 0 0 127 0" result="hardAlpha"/>
<feOffset dy="4"/>
<feGaussianBlur stdDeviation="5"/>
<feComposite in2="hardAlpha" operator="out"/>
<feColorMatrix type="matrix" values="0 0 0 0 0 0 0 0 0 0 0 0 0 0 0 0 0 0 0.2 0"/>
<feBlend mode="normal" in2="BackgroundImageFix" result="effect1_dropShadow_673_47624"/>
<feBlend mode="normal" in="SourceGraphic" in2="effect1_dropShadow_673_47624" result="shape"/>
</filter>
<clipPath id="clip0_673_47624">
<rect width="50" height="50" fill="white"/>
</clipPath>
</defs>
</svg>
