<svg width="50" height="80" viewBox="0 0 50 80" fill="none" xmlns="http://www.w3.org/2000/svg">
<g filter="url(#filter0_d_673_47653)">
<path d="M12.246 66C8.814 66 7.098 64.336 7.098 61.008C7.098 57.732 8.814 56.094 12.246 56.094H20.124V24.426L14.43 27.858C12.922 28.742 11.57 28.976 10.374 28.56C9.178 28.144 8.268 27.364 7.644 26.22C7.02 25.076 6.838 23.854 7.098 22.554C7.358 21.202 8.216 20.058 9.672 19.122L20.514 12.57C21.606 11.894 22.698 11.348 23.79 10.932C24.934 10.516 26.052 10.308 27.144 10.308C28.704 10.308 29.926 10.724 30.81 11.556C31.746 12.388 32.214 13.61 32.214 15.222V56.094H39.312C42.692 56.094 44.382 57.732 44.382 61.008C44.382 64.336 42.692 66 39.312 66H12.246Z" fill="white"/>
</g>
<defs>
<filter id="filter0_d_673_47653" x="3.70801" y="10.3081" width="45.674" height="63.6919" filterUnits="userSpaceOnUse" color-interpolation-filters="sRGB">
<feFlood flood-opacity="0" result="BackgroundImageFix"/>
<feColorMatrix in="SourceAlpha" type="matrix" values="0 0 0 0 0 0 0 0 0 0 0 0 0 0 0 0 0 0 127 0" result="hardAlpha"/>
<feOffset dx="1" dy="4"/>
<feGaussianBlur stdDeviation="2"/>
<feComposite in2="hardAlpha" operator="out"/>
<feColorMatrix type="matrix" values="0 0 0 0 0 0 0 0 0 0 0 0 0 0 0 0 0 0 0.15 0"/>
<feBlend mode="normal" in2="BackgroundImageFix" result="effect1_dropShadow_673_47653"/>
<feBlend mode="normal" in="SourceGraphic" in2="effect1_dropShadow_673_47653" result="shape"/>
</filter>
</defs>
</svg>
