<svg width="30" height="30" viewBox="0 0 30 30" fill="none" xmlns="http://www.w3.org/2000/svg">
<mask id="mask0_673_47338" style="mask-type:alpha" maskUnits="userSpaceOnUse" x="0" y="0" width="30" height="30">
<rect width="30" height="30" fill="#C4C4C4"/>
</mask>
<g mask="url(#mask0_673_47338)">
<path d="M15.4942 5.26515C13.9239 5.51015 12.6884 6.42997 12.0348 7.83978C11.5645 8.86276 11.4688 9.486 11.4688 11.605V13.1051H10.1177C9.36847 13.1051 8.71883 13.1223 8.66702 13.1438C8.61123 13.1696 8.52753 13.2297 8.48369 13.2813C8.39999 13.3759 8.39999 13.406 8.39999 15.3574C8.39999 17.1712 8.40796 17.3474 8.47173 17.4291C8.60724 17.6139 8.65905 17.6182 10.0898 17.6182H11.4688V22.2603V26.9024L11.5844 27.0399L11.7 27.1817L13.5572 27.1946C15.1953 27.2032 15.4304 27.1989 15.538 27.1388C15.7851 27.0012 15.7732 27.2161 15.7732 22.1958V17.6182H17.3674C18.5152 17.6182 18.9855 17.6053 19.0612 17.5666C19.2804 17.4592 19.2804 17.442 19.2804 15.3445V13.406L19.1648 13.2684L19.0493 13.1266L17.4072 13.1137L15.7692 13.1008L15.7812 11.7125L15.7931 10.3284L15.9127 10.0749C16.0442 9.79977 16.2634 9.61494 16.5583 9.52898C16.642 9.50319 17.2319 9.4774 17.8656 9.4688C18.5033 9.45591 19.0652 9.43872 19.113 9.42582C19.1648 9.41293 19.2525 9.35275 19.3043 9.29258L19.4 9.18082V7.324C19.4 5.50155 19.4 5.46717 19.3163 5.37261C19.2725 5.32103 19.1888 5.26085 19.133 5.23507C18.9735 5.17059 15.9406 5.19638 15.4942 5.26515Z" fill="white"/>
</g>
</svg>
