<svg width="31" height="32" viewBox="0 0 31 32" fill="none" xmlns="http://www.w3.org/2000/svg">
<mask id="mask0_673_47327" style="mask-type:alpha" maskUnits="userSpaceOnUse" x="0" y="1" width="31" height="31">
<rect x="0.199951" y="1.19995" width="30" height="30" fill="#C4C4C4"/>
</mask>
<g mask="url(#mask0_673_47327)">
<path d="M26.6329 15.7403V12.5078H24.9493V15.7403H21.5821V17.3566H24.9493V20.5891H26.6329V17.3566H30V15.7403H26.6329Z" fill="white"/>
<path d="M10.1286 15.5421V19.3421H15.5037C14.719 21.5537 12.6062 23.1421 10.1286 23.1421C6.98597 23.1421 4.42857 20.5847 4.42857 17.4421C4.42857 14.2995 6.98597 11.7421 10.1286 11.7421C11.4909 11.7421 12.8019 12.2304 13.8203 13.1177L16.3169 10.2525C14.6069 8.76294 12.4105 7.94214 10.1286 7.94214C4.89027 7.94214 0.628571 12.2038 0.628571 17.4421C0.628571 22.6804 4.89027 26.9421 10.1286 26.9421C15.3669 26.9421 19.6286 22.6804 19.6286 17.4421V15.5421H10.1286Z" fill="white"/>
</g>
</svg>
