<svg width="30" height="30" viewBox="0 0 30 30" fill="none" xmlns="http://www.w3.org/2000/svg">
<path d="M26.1381 26.5306V26.5296H26.1436V18.4611C26.1436 14.514 25.2938 11.4734 20.6793 11.4734C18.461 11.4734 16.9723 12.6907 16.3646 13.8448H16.3004V11.8419H11.9251V26.5296H16.481V19.2568C16.481 17.3419 16.844 15.4902 19.2154 15.4902C21.552 15.4902 21.5868 17.6756 21.5868 19.3796V26.5306H26.1381Z" fill="white"/>
<path d="M4.36391 11.8428H8.92525V26.5305H4.36391V11.8428Z" fill="white"/>
<path d="M6.64177 4.16479C5.18336 4.16479 3.99994 5.34821 3.99994 6.80663C3.99994 8.26505 5.18336 9.47321 6.64177 9.47321C8.10019 9.47321 9.28361 8.26505 9.28361 6.80663C9.28269 5.34821 8.09927 4.16479 6.64177 4.16479V4.16479Z" fill="white"/>
</svg>
