<svg width="30" height="30" viewBox="0 0 30 30" fill="none" xmlns="http://www.w3.org/2000/svg">
<path fill-rule="evenodd" clip-rule="evenodd" d="M24.5259 10.793C24.5259 16.3379 21.4432 20.4811 16.8989 20.4811C15.3721 20.4811 13.9375 19.6557 13.4458 18.7187C13.4458 18.7187 12.6248 21.9756 12.4518 22.6044C11.8397 24.8255 10.0391 27.0475 9.89989 27.2302C9.80187 27.3567 9.587 27.3169 9.56386 27.1494C9.52484 26.8663 9.06611 24.0636 9.60646 21.7772C9.87739 20.6291 11.4243 14.0747 11.4243 14.0747C11.4243 14.0747 10.9737 13.1721 10.9737 11.8385C10.9737 9.74291 12.1876 8.17951 13.6995 8.17951C14.9851 8.17951 15.6056 9.1442 15.6056 10.3012C15.6056 11.5944 14.7832 13.5268 14.3581 15.3171C14.0033 16.8169 15.1102 18.0404 16.589 18.0404C19.2668 18.0404 21.0705 14.6 21.0705 10.5242C21.0705 7.42658 18.9846 5.10727 15.1887 5.10727C10.9019 5.10727 8.22939 8.30514 8.22939 11.8773C8.22939 13.1092 8.59308 13.9781 9.16255 14.6494C9.42306 14.9584 9.4605 15.0827 9.3654 15.4374C9.2965 15.6979 9.14234 16.3236 9.07653 16.572C8.98296 16.9305 8.69251 17.0578 8.36931 16.9259C6.39499 16.1199 5.47443 13.9563 5.47443 11.5255C5.4746 7.51055 8.86109 2.69531 15.5773 2.69531C20.9747 2.69531 24.5259 6.59971 24.5259 10.793Z" fill="white"/>
</svg>
