<svg width="120" height="56" viewBox="0 0 120 56" fill="none" xmlns="http://www.w3.org/2000/svg">
<path d="M105.079 20.7724C105.067 21.311 104.569 21.7017 104.072 21.6112C104.755 21.736 106.344 21.9108 107.238 21.6112C106.72 21.6893 106.247 21.2946 106.235 20.7683C106.235 20.797 105.885 18.005 107.283 15.4227C108.48 13.2145 109.146 13.4448 110.548 12.9102C112.344 12.2235 114.19 11.5163 115.457 9.97424C117.525 7.45359 116.978 3.99951 116.801 3.06609C114.581 6.25289 112.332 5.34825 110.067 6.79978C107.764 8.27599 106.736 10.6034 106.958 13.0953C109.24 9.10661 112.122 10.8625 115.099 6.8738C114.375 8.0745 113.385 9.11895 112.151 9.86322C110.379 10.9488 109.524 10.6322 106.839 14.5304C106.346 15.2459 105.947 16.0271 105.659 16.8454C105.326 15.8997 104.845 14.9909 104.236 14.1932C103.015 12.6018 102.477 11.7013 101.408 10.9324C99.944 9.87144 97.452 9.46436 95.4419 6.11719C98.797 10.6199 101.942 8.56383 104.5 13.0418C104.754 10.2045 103.554 7.65097 101.042 6.03906C98.521 4.42305 96.0216 5.43049 93.5506 1.88184C93.3533 2.92217 92.7448 6.76689 95.0472 9.57127C96.4527 11.2843 98.495 12.0661 100.487 12.8285L100.507 12.8362C101.465 13.2022 103.928 13.3132 104.89 17.7007C105.153 18.9179 105.108 19.621 105.079 20.7724Z" fill="#00730C"/>
<path d="M2.64008 41.82C0.933408 41.82 0.0800781 40.94 0.0800781 39.18V15.9C0.0800781 14.1667 0.946748 13.3 2.68008 13.3H12.3201C15.4134 13.3 17.8001 14.0733 19.4801 15.62C21.1601 17.1667 22.0001 19.3267 22.0001 22.1C22.0001 24.8733 21.1601 27.0467 19.4801 28.62C17.8001 30.1667 15.4134 30.94 12.3201 30.94H5.20008V39.18C5.20008 40.94 4.34675 41.82 2.64008 41.82ZM5.20008 26.9H11.5201C15.2001 26.9 17.0401 25.3 17.0401 22.1C17.0401 18.9267 15.2001 17.34 11.5201 17.34H5.20008V26.9ZM32.3739 41.9C27.9205 41.9 25.6939 39.4067 25.6939 34.42V15.5C25.6939 13.82 26.5205 12.98 28.1739 12.98C29.8539 12.98 30.6939 13.82 30.6939 15.5V34.18C30.6939 36.58 31.6939 37.78 33.6939 37.78C33.9072 37.78 34.1072 37.78 34.2939 37.78C34.4805 37.7533 34.6672 37.7267 34.8538 37.7C35.2272 37.6467 35.4805 37.7533 35.6139 38.02C35.7472 38.26 35.8139 38.7667 35.8139 39.54C35.8139 40.2067 35.6805 40.7267 35.4139 41.1C35.1472 41.4733 34.7072 41.7 34.0939 41.78C33.5339 41.86 32.9605 41.9 32.3739 41.9ZM44.9073 41.9C43.494 41.9 42.2273 41.6333 41.1073 41.1C40.014 40.54 39.1473 39.7933 38.5073 38.86C37.894 37.9267 37.5873 36.8733 37.5873 35.7C37.5873 34.26 37.9606 33.1267 38.7073 32.3C39.454 31.4467 40.6673 30.8333 42.3473 30.46C44.0273 30.0867 46.2806 29.9 49.1073 29.9H50.5073V29.06C50.5073 27.7267 50.214 26.7667 49.6273 26.18C49.0406 25.5933 48.054 25.3 46.6673 25.3C45.894 25.3 45.054 25.3933 44.1473 25.58C43.2673 25.7667 42.334 26.0867 41.3473 26.54C40.7073 26.8333 40.174 26.8733 39.7473 26.66C39.3206 26.42 39.0273 26.06 38.8673 25.58C38.734 25.0733 38.7606 24.5667 38.9473 24.06C39.1606 23.5533 39.574 23.18 40.1873 22.94C41.414 22.4333 42.5873 22.0733 43.7073 21.86C44.854 21.6467 45.894 21.54 46.8273 21.54C49.6806 21.54 51.8006 22.2067 53.1873 23.54C54.574 24.8467 55.2673 26.8867 55.2673 29.66V39.26C55.2673 40.9667 54.494 41.82 52.9473 41.82C51.374 41.82 50.5873 40.9667 50.5873 39.26V38.38C50.134 39.4733 49.414 40.34 48.4273 40.98C47.4406 41.5933 46.2673 41.9 44.9073 41.9ZM45.9473 38.46C47.254 38.46 48.334 38.0067 49.1873 37.1C50.0673 36.1933 50.5073 35.0467 50.5073 33.66V32.78H49.1473C46.6406 32.78 44.894 32.98 43.9073 33.38C42.9473 33.7533 42.4673 34.4467 42.4673 35.46C42.4673 36.34 42.774 37.06 43.3873 37.62C44.0006 38.18 44.854 38.46 45.9473 38.46ZM62.8223 41.82C61.169 41.82 60.3423 40.9667 60.3423 39.26V24.14C60.3423 22.46 61.1556 21.62 62.7823 21.62C64.409 21.62 65.2223 22.46 65.2223 24.14V24.98C65.889 23.86 66.7823 23.0067 67.9023 22.42C69.049 21.8333 70.329 21.54 71.7423 21.54C76.3556 21.54 78.6623 24.22 78.6623 29.58V39.26C78.6623 40.9667 77.8356 41.82 76.1823 41.82C74.5023 41.82 73.6623 40.9667 73.6623 39.26V29.82C73.6623 28.3 73.369 27.1933 72.7823 26.5C72.2223 25.8067 71.3423 25.46 70.1423 25.46C68.6756 25.46 67.5023 25.9267 66.6223 26.86C65.769 27.7667 65.3423 28.98 65.3423 30.5V39.26C65.3423 40.9667 64.5023 41.82 62.8223 41.82ZM92.7007 41.9C87.5274 41.9 84.9407 39.34 84.9407 34.22V25.7H82.8607C81.5274 25.7 80.8607 25.0733 80.8607 23.82C80.8607 22.5667 81.5274 21.94 82.8607 21.94H84.9407V18.3C84.9407 16.62 85.7807 15.78 87.4607 15.78C89.1141 15.78 89.9407 16.62 89.9407 18.3V21.94H94.1807C95.5141 21.94 96.1807 22.5667 96.1807 23.82C96.1807 25.0733 95.5141 25.7 94.1807 25.7H89.9407V33.94C89.9407 35.22 90.2207 36.18 90.7807 36.82C91.3407 37.46 92.2474 37.78 93.5007 37.78C93.9541 37.78 94.3541 37.74 94.7007 37.66C95.0474 37.58 95.3541 37.5267 95.6207 37.5C95.9407 37.4733 96.2074 37.58 96.4207 37.82C96.6341 38.0333 96.7407 38.4867 96.7407 39.18C96.7407 39.7133 96.6474 40.1933 96.4607 40.62C96.3007 41.02 95.9941 41.3 95.5407 41.46C95.1941 41.5667 94.7407 41.66 94.1807 41.74C93.6207 41.8467 93.1274 41.9 92.7007 41.9Z" fill="#0B0B0B"/>
<path d="M106.252 41.9C105.106 41.9 103.892 41.78 102.612 41.54C101.332 41.3 100.186 40.8867 99.172 40.3C98.612 39.98 98.266 39.5933 98.132 39.14C97.999 38.66 98.012 38.22 98.172 37.82C98.359 37.3933 98.652 37.0867 99.052 36.9C99.479 36.7133 99.972 36.7533 100.532 37.02C101.599 37.5267 102.599 37.8867 103.532 38.1C104.466 38.2867 105.386 38.38 106.292 38.38C107.572 38.38 108.519 38.1667 109.132 37.74C109.772 37.2867 110.092 36.7 110.092 35.98C110.092 34.86 109.266 34.14 107.612 33.82L103.612 33.06C100.226 32.42 98.532 30.66 98.532 27.78C98.532 26.5 98.879 25.3933 99.572 24.46C100.292 23.5267 101.279 22.8067 102.532 22.3C103.786 21.7933 105.226 21.54 106.852 21.54C109.199 21.54 111.292 22.06 113.132 23.1C113.639 23.3667 113.932 23.74 114.012 24.22C114.119 24.6733 114.066 25.1133 113.852 25.54C113.666 25.94 113.359 26.2333 112.932 26.42C112.506 26.58 112.012 26.5267 111.452 26.26C110.626 25.8333 109.826 25.5267 109.052 25.34C108.306 25.1533 107.586 25.06 106.892 25.06C105.586 25.06 104.612 25.2867 103.972 25.74C103.359 26.1933 103.052 26.7933 103.052 27.54C103.052 28.7133 103.812 29.4333 105.332 29.7L109.332 30.46C111.066 30.78 112.372 31.3667 113.252 32.22C114.159 33.0733 114.612 34.22 114.612 35.66C114.612 37.6067 113.852 39.14 112.332 40.26C110.812 41.3533 108.786 41.9 106.252 41.9Z" fill="#00730C"/>
</svg>
