<svg width="120" height="56" viewBox="0 0 120 56" fill="none" xmlns="http://www.w3.org/2000/svg">
<path d="M108.094 21.3905C108.082 21.9292 107.585 22.3198 107.088 22.2294C107.77 22.3542 109.357 22.5289 110.25 22.2294C109.733 22.3075 109.26 21.9127 109.248 21.3864C109.248 21.4152 108.899 18.6231 110.295 16.0408C111.49 13.8327 112.155 14.0629 113.556 13.5284C115.35 12.8417 117.194 12.1344 118.459 10.5924C120.524 8.07175 119.978 4.61768 119.801 3.68426C117.584 6.87105 115.338 5.96641 113.075 7.41795C110.776 8.89415 109.749 11.2215 109.971 13.7134C112.25 9.72478 115.128 11.4806 118.101 7.49196C117.379 8.69267 116.389 9.73711 115.157 10.4814C113.387 11.567 112.533 11.2503 109.852 15.1485C109.359 15.864 108.961 16.6453 108.673 17.4636C108.34 16.5178 107.86 15.609 107.252 14.8113C106.033 13.22 105.495 12.3194 104.427 11.5505C102.965 10.4896 100.477 10.0825 98.4687 6.73535C101.82 11.238 104.961 9.18199 107.515 13.66C107.77 10.8227 106.571 8.26913 104.062 6.65723C101.544 5.04121 99.0477 6.04865 96.5797 2.5C96.3826 3.54033 95.7749 7.38505 98.0745 10.1894C99.4782 11.9024 101.518 12.6842 103.508 13.4466L103.528 13.4544C104.485 13.8203 106.944 13.9313 107.905 18.3188C108.168 19.536 108.123 20.2391 108.094 21.3905Z" fill="white"/>
<path d="M5.64008 41.82C3.93341 41.82 3.08008 40.94 3.08008 39.18V15.9C3.08008 14.1667 3.94675 13.3 5.68008 13.3H15.3201C18.4134 13.3 20.8001 14.0733 22.4801 15.62C24.1601 17.1667 25.0001 19.3267 25.0001 22.1C25.0001 24.8733 24.1601 27.0467 22.4801 28.62C20.8001 30.1667 18.4134 30.94 15.3201 30.94H8.20008V39.18C8.20008 40.94 7.34675 41.82 5.64008 41.82ZM8.20008 26.9H14.5201C18.2001 26.9 20.0401 25.3 20.0401 22.1C20.0401 18.9267 18.2001 17.34 14.5201 17.34H8.20008V26.9ZM35.3739 41.9C30.9205 41.9 28.6939 39.4067 28.6939 34.42V15.5C28.6939 13.82 29.5205 12.98 31.1739 12.98C32.8539 12.98 33.6939 13.82 33.6939 15.5V34.18C33.6939 36.58 34.6939 37.78 36.6939 37.78C36.9072 37.78 37.1072 37.78 37.2939 37.78C37.4805 37.7533 37.6672 37.7267 37.8538 37.7C38.2272 37.6467 38.4805 37.7533 38.6139 38.02C38.7472 38.26 38.8139 38.7667 38.8139 39.54C38.8139 40.2067 38.6805 40.7267 38.4139 41.1C38.1472 41.4733 37.7072 41.7 37.0939 41.78C36.5339 41.86 35.9605 41.9 35.3739 41.9ZM47.9073 41.9C46.494 41.9 45.2273 41.6333 44.1073 41.1C43.014 40.54 42.1473 39.7933 41.5073 38.86C40.894 37.9267 40.5873 36.8733 40.5873 35.7C40.5873 34.26 40.9606 33.1267 41.7073 32.3C42.454 31.4467 43.6673 30.8333 45.3473 30.46C47.0273 30.0867 49.2806 29.9 52.1073 29.9H53.5073V29.06C53.5073 27.7267 53.214 26.7667 52.6273 26.18C52.0406 25.5933 51.054 25.3 49.6673 25.3C48.894 25.3 48.054 25.3933 47.1473 25.58C46.2673 25.7667 45.334 26.0867 44.3473 26.54C43.7073 26.8333 43.174 26.8733 42.7473 26.66C42.3206 26.42 42.0273 26.06 41.8673 25.58C41.734 25.0733 41.7606 24.5667 41.9473 24.06C42.1606 23.5533 42.574 23.18 43.1873 22.94C44.414 22.4333 45.5873 22.0733 46.7073 21.86C47.854 21.6467 48.894 21.54 49.8273 21.54C52.6806 21.54 54.8006 22.2067 56.1873 23.54C57.574 24.8467 58.2673 26.8867 58.2673 29.66V39.26C58.2673 40.9667 57.494 41.82 55.9473 41.82C54.374 41.82 53.5873 40.9667 53.5873 39.26V38.38C53.134 39.4733 52.414 40.34 51.4273 40.98C50.4406 41.5933 49.2673 41.9 47.9073 41.9ZM48.9473 38.46C50.254 38.46 51.334 38.0067 52.1873 37.1C53.0673 36.1933 53.5073 35.0467 53.5073 33.66V32.78H52.1473C49.6406 32.78 47.894 32.98 46.9073 33.38C45.9473 33.7533 45.4673 34.4467 45.4673 35.46C45.4673 36.34 45.774 37.06 46.3873 37.62C47.0006 38.18 47.854 38.46 48.9473 38.46ZM65.8223 41.82C64.169 41.82 63.3423 40.9667 63.3423 39.26V24.14C63.3423 22.46 64.1556 21.62 65.7823 21.62C67.409 21.62 68.2223 22.46 68.2223 24.14V24.98C68.889 23.86 69.7823 23.0067 70.9023 22.42C72.049 21.8333 73.329 21.54 74.7423 21.54C79.3556 21.54 81.6623 24.22 81.6623 29.58V39.26C81.6623 40.9667 80.8356 41.82 79.1823 41.82C77.5023 41.82 76.6623 40.9667 76.6623 39.26V29.82C76.6623 28.3 76.369 27.1933 75.7823 26.5C75.2223 25.8067 74.3423 25.46 73.1423 25.46C71.6756 25.46 70.5023 25.9267 69.6223 26.86C68.769 27.7667 68.3423 28.98 68.3423 30.5V39.26C68.3423 40.9667 67.5023 41.82 65.8223 41.82ZM95.7007 41.9C90.5274 41.9 87.9407 39.34 87.9407 34.22V25.7H85.8607C84.5274 25.7 83.8607 25.0733 83.8607 23.82C83.8607 22.5667 84.5274 21.94 85.8607 21.94H87.9407V18.3C87.9407 16.62 88.7807 15.78 90.4607 15.78C92.1141 15.78 92.9407 16.62 92.9407 18.3V21.94H97.1807C98.5141 21.94 99.1807 22.5667 99.1807 23.82C99.1807 25.0733 98.5141 25.7 97.1807 25.7H92.9407V33.94C92.9407 35.22 93.2207 36.18 93.7807 36.82C94.3407 37.46 95.2474 37.78 96.5007 37.78C96.9541 37.78 97.3541 37.74 97.7007 37.66C98.0474 37.58 98.3541 37.5267 98.6207 37.5C98.9407 37.4733 99.2074 37.58 99.4207 37.82C99.6341 38.0333 99.7407 38.4867 99.7407 39.18C99.7407 39.7133 99.6474 40.1933 99.4607 40.62C99.3007 41.02 98.9941 41.3 98.5407 41.46C98.1941 41.5667 97.7407 41.66 97.1807 41.74C96.6207 41.8467 96.1274 41.9 95.7007 41.9Z" fill="#0B0B0B"/>
<path d="M109.252 41.9C108.106 41.9 106.892 41.78 105.612 41.54C104.332 41.3 103.186 40.8867 102.172 40.3C101.612 39.98 101.266 39.5933 101.132 39.14C100.999 38.66 101.012 38.22 101.172 37.82C101.359 37.3933 101.652 37.0867 102.052 36.9C102.479 36.7133 102.972 36.7533 103.532 37.02C104.599 37.5267 105.599 37.8867 106.532 38.1C107.466 38.2867 108.386 38.38 109.292 38.38C110.572 38.38 111.519 38.1667 112.132 37.74C112.772 37.2867 113.092 36.7 113.092 35.98C113.092 34.86 112.266 34.14 110.612 33.82L106.612 33.06C103.226 32.42 101.532 30.66 101.532 27.78C101.532 26.5 101.879 25.3933 102.572 24.46C103.292 23.5267 104.279 22.8067 105.532 22.3C106.786 21.7933 108.226 21.54 109.852 21.54C112.199 21.54 114.292 22.06 116.132 23.1C116.639 23.3667 116.932 23.74 117.012 24.22C117.119 24.6733 117.066 25.1133 116.852 25.54C116.666 25.94 116.359 26.2333 115.932 26.42C115.506 26.58 115.012 26.5267 114.452 26.26C113.626 25.8333 112.826 25.5267 112.052 25.34C111.306 25.1533 110.586 25.06 109.892 25.06C108.586 25.06 107.612 25.2867 106.972 25.74C106.359 26.1933 106.052 26.7933 106.052 27.54C106.052 28.7133 106.812 29.4333 108.332 29.7L112.332 30.46C114.066 30.78 115.372 31.3667 116.252 32.22C117.159 33.0733 117.612 34.22 117.612 35.66C117.612 37.6067 116.852 39.14 115.332 40.26C113.812 41.3533 111.786 41.9 109.252 41.9Z" fill="white"/>
</svg>
