<svg width="20" height="20" viewBox="0 0 20 20" fill="none" xmlns="http://www.w3.org/2000/svg">
<mask id="mask0_673_53415" style="mask-type:alpha" maskUnits="userSpaceOnUse" x="0" y="0" width="20" height="20">
<rect width="20" height="20" fill="#C4C4C4"/>
</mask>
<g mask="url(#mask0_673_53415)">
<path d="M10.3294 3.51018C9.28258 3.67352 8.45891 4.28673 8.02316 5.2266C7.70964 5.90859 7.64587 6.32408 7.64587 7.73676V8.73681H6.74514C6.24563 8.73681 5.81254 8.74827 5.77799 8.7626C5.7408 8.77979 5.685 8.81991 5.65577 8.85429C5.59998 8.91733 5.59998 8.93739 5.59998 10.2383C5.59998 11.4475 5.60529 11.565 5.6478 11.6195C5.73814 11.7427 5.77268 11.7456 6.72655 11.7456H7.64587V14.8403V17.935L7.72292 18.0267L7.79998 18.1212L9.03814 18.1298C10.1302 18.1356 10.2869 18.1327 10.3587 18.0926C10.5234 18.0009 10.5154 18.1442 10.5154 14.7973V11.7456H11.5782C12.3435 11.7456 12.657 11.737 12.7075 11.7112C12.8536 11.6395 12.8536 11.6281 12.8536 10.2297V8.93739L12.7765 8.8457L12.6995 8.75114L11.6048 8.74254L10.5128 8.73394L10.5207 7.8084L10.5287 6.88571L10.6084 6.71665C10.6961 6.53326 10.8422 6.41004 11.0389 6.35273C11.0947 6.33554 11.4879 6.31835 11.9104 6.31262C12.3355 6.30402 12.7101 6.29256 12.742 6.28396C12.7765 6.27537 12.835 6.23525 12.8695 6.19513L12.9333 6.12063V4.88275C12.9333 3.66779 12.9333 3.64486 12.8775 3.58182C12.8483 3.54744 12.7925 3.50732 12.7553 3.49013C12.649 3.44714 10.627 3.46434 10.3294 3.51018Z" fill="#00730C"/>
</g>
</svg>
