<svg width="21" height="21" viewBox="0 0 21 21" fill="none" xmlns="http://www.w3.org/2000/svg">
<mask id="mask0_673_53449" style="mask-type:alpha" maskUnits="userSpaceOnUse" x="0" y="0" width="21" height="21">
<rect x="0.133301" y="0.800049" width="20" height="20" fill="#C4C4C4"/>
</mask>
<g mask="url(#mask0_673_53449)">
<path d="M17.7551 10.4936V8.33862H16.6327V10.4936H14.3879V11.5711H16.6327V13.7261H17.7551V11.5711H19.9999V10.4936H17.7551Z" fill="white"/>
<path d="M6.75228 10.3613V12.8947H10.3357C9.81255 14.3691 8.40401 15.428 6.75228 15.428C4.65721 15.428 2.95228 13.7231 2.95228 11.628C2.95228 9.53294 4.65721 7.82801 6.75228 7.82801C7.66048 7.82801 8.53448 8.15354 9.21341 8.74508L10.8778 6.83494C9.73781 5.84188 8.27355 5.29468 6.75228 5.29468C3.26008 5.29468 0.418945 8.13581 0.418945 11.628C0.418945 15.1202 3.26008 17.9613 6.75228 17.9613C10.2445 17.9613 13.0856 15.1202 13.0856 11.628V10.3613H6.75228Z" fill="white"/>
</g>
</svg>
