<svg width="20" height="20" viewBox="0 0 20 20" fill="none" xmlns="http://www.w3.org/2000/svg">
<path d="M16.0837 16.3316V16.3311H16.0871V11.4411C16.0871 9.04883 15.5721 7.20605 12.7754 7.20605C11.431 7.20605 10.5287 7.94383 10.1604 8.64328H10.1215V7.42939H7.46985V16.3311H10.231V11.9233C10.231 10.7627 10.451 9.6405 11.8882 9.6405C13.3043 9.6405 13.3254 10.9649 13.3254 11.9977V16.3316H16.0837Z" fill="#00730C"/>
<path d="M2.88721 7.42993H5.65165V16.3316H2.88721V7.42993Z" fill="#00730C"/>
<path d="M4.26774 2.77661C3.38385 2.77661 2.66663 3.49383 2.66663 4.37772C2.66663 5.26161 3.38385 5.99384 4.26774 5.99384C5.15163 5.99384 5.86885 5.26161 5.86885 4.37772C5.86829 3.49383 5.15107 2.77661 4.26774 2.77661V2.77661Z" fill="#00730C"/>
</svg>
