<svg width="20" height="20" viewBox="0 0 20 20" fill="none" xmlns="http://www.w3.org/2000/svg">
<path d="M16.0836 16.3316V16.3311H16.0869V11.4411C16.0869 9.04883 15.5719 7.20605 12.7753 7.20605C11.4308 7.20605 10.5286 7.94383 10.1603 8.64328H10.1214V7.42939H7.46973V16.3311H10.2308V11.9233C10.2308 10.7627 10.4508 9.6405 11.8881 9.6405C13.3042 9.6405 13.3253 10.9649 13.3253 11.9977V16.3316H16.0836Z" fill="white"/>
<path d="M2.88696 7.42993H5.65141V16.3316H2.88696V7.42993Z" fill="white"/>
<path d="M4.26762 2.77661C3.38373 2.77661 2.6665 3.49383 2.6665 4.37772C2.6665 5.26161 3.38373 5.99384 4.26762 5.99384C5.1515 5.99384 5.86873 5.26161 5.86873 4.37772C5.86817 3.49383 5.15095 2.77661 4.26762 2.77661V2.77661Z" fill="white"/>
</svg>
