<svg width="20" height="20" viewBox="0 0 20 20" fill="none" xmlns="http://www.w3.org/2000/svg">
<mask id="mask0_673_53434" style="mask-type:alpha" maskUnits="userSpaceOnUse" x="1" y="3" width="17" height="17">
<rect x="1.84326" y="3.17651" width="16" height="16" fill="#C4C4C4"/>
</mask>
<g mask="url(#mask0_673_53434)">
<path d="M17.8433 6.21551C17.2483 6.47651 16.6143 6.64951 15.9533 6.73351C16.6333 6.32751 17.1523 5.68951 17.3963 4.92051C16.7623 5.29851 16.0623 5.56551 15.3163 5.71451C14.7143 5.07351 13.8563 4.67651 12.9203 4.67651C11.1043 4.67651 9.64226 6.15051 9.64226 7.95751C9.64226 8.21751 9.66426 8.46751 9.71826 8.70551C6.99126 8.57251 4.57826 7.26551 2.95726 5.27451C2.67426 5.76551 2.50826 6.32751 2.50826 6.93251C2.50826 8.06851 3.09326 9.07551 3.96526 9.65851C3.43826 9.64851 2.92126 9.49551 2.48326 9.25451C2.48326 9.26451 2.48326 9.27751 2.48326 9.29051C2.48326 10.8845 3.62026 12.2085 5.11126 12.5135C4.84426 12.5865 4.55326 12.6215 4.25126 12.6215C4.04126 12.6215 3.82926 12.6095 3.63026 12.5655C4.05526 13.8645 5.26126 14.8195 6.69526 14.8505C5.57926 15.7235 4.16226 16.2495 2.62826 16.2495C2.35926 16.2495 2.10126 16.2375 1.84326 16.2045C3.29626 17.1415 5.01826 17.6765 6.87526 17.6765C12.9113 17.6765 16.2113 12.6765 16.2113 8.34251C16.2113 8.19751 16.2063 8.05751 16.1993 7.91851C16.8503 7.45651 17.3973 6.87951 17.8433 6.21551Z" fill="white"/>
</g>
</svg>
