<svg width="25" height="25" viewBox="0 0 25 25" fill="none" xmlns="http://www.w3.org/2000/svg">
<path d="M1.71447 1.82746C1.22661 2.31532 1.259 3.13828 1.71643 3.59571L10.3057 12.185L12.0734 10.4172L3.48419 1.82794C3.02683 1.37058 2.20241 1.33952 1.71447 1.82746Z" fill="#00730C"/>
<path d="M22.9982 23.1112C23.4861 22.6233 23.4975 21.8413 23.0401 21.3838L14.7717 13.1154L13.0039 14.8832L21.2723 23.1516C21.7297 23.609 22.5103 23.599 22.9982 23.1112Z" fill="#00730C"/>
<path d="M23.3831 3.61496L3.82719 23.1709C3.36977 23.6283 2.4885 23.7199 2.00064 23.2321C1.51278 22.7442 1.60207 21.8604 2.05943 21.4031C2.51679 20.9457 21.6153 1.84719 21.6153 1.84719C22.0727 1.38977 23.0107 1.24482 23.4986 1.73268C23.9864 2.22055 23.8405 3.15753 23.3831 3.61496Z" fill="#00730C"/>
</svg>
