<svg width="25" height="25" viewBox="0 0 25 25" fill="none" xmlns="http://www.w3.org/2000/svg">
<path d="M12.5 0C8.10718 0 4.44336 3.53857 4.44336 8.05664C4.44336 9.77549 4.95986 11.3082 5.95112 12.7444L11.8834 22.0013C12.1712 22.4513 12.8293 22.4504 13.1166 22.0013L19.0746 12.7129C20.0445 11.3418 20.5566 9.73179 20.5566 8.05664C20.5566 3.61421 16.9424 0 12.5 0ZM12.5 11.7188C10.4808 11.7188 8.83789 10.0758 8.83789 8.05664C8.83789 6.03745 10.4808 4.39453 12.5 4.39453C14.5192 4.39453 16.1621 6.03745 16.1621 8.05664C16.1621 10.0758 14.5192 11.7188 12.5 11.7188Z" fill="white"/>
<path d="M14.7482 22.732L14.7483 22.7317L18.3409 17.1151C19.8699 17.4835 21.0908 17.9904 21.9318 18.5866C22.8052 19.2059 23.2363 19.8955 23.2363 20.6057C23.2363 21.2273 22.9307 21.7958 22.3525 22.3098C21.7717 22.8262 20.9305 23.2729 19.9064 23.638C17.8598 24.3676 15.1432 24.7502 12.5 24.7502C9.8568 24.7502 7.14025 24.3676 5.09362 23.638C4.06952 23.2729 3.22833 22.8262 2.64746 22.3098C2.06929 21.7958 1.76367 21.2273 1.76367 20.6057C1.76367 19.896 2.19422 19.2068 3.06643 18.5879C3.90627 17.992 5.12553 17.4852 6.65255 17.1166L10.251 22.7333L10.2511 22.7334C11.2993 24.3686 13.695 24.374 14.7482 22.732Z" stroke="white" stroke-width="0.5"/>
</svg>
