<svg width="31" height="31" viewBox="0 0 31 31" fill="none" xmlns="http://www.w3.org/2000/svg">
<g clip-path="url(#clip0_2411_36559)">
<g filter="url(#filter0_d_2411_36559)">
<path d="M17.2577 9.34766C17.7431 9.34766 18.1366 8.95416 18.1366 8.46875C18.1366 7.98334 17.7431 7.58984 17.2577 7.58984C16.7723 7.58984 16.3788 7.98334 16.3788 8.46875C16.3788 8.95416 16.7723 9.34766 17.2577 9.34766Z" fill="white"/>
<path d="M20.7733 9.34766C21.2587 9.34766 21.6522 8.95416 21.6522 8.46875C21.6522 7.98334 21.2587 7.58984 20.7733 7.58984C20.2879 7.58984 19.8944 7.98334 19.8944 8.46875C19.8944 8.95416 20.2879 9.34766 20.7733 9.34766Z" fill="white"/>
<path d="M24.2889 9.34766C24.7743 9.34766 25.1678 8.95416 25.1678 8.46875C25.1678 7.98334 24.7743 7.58984 24.2889 7.58984C23.8035 7.58984 23.41 7.98334 23.41 8.46875C23.41 8.95416 23.8035 9.34766 24.2889 9.34766Z" fill="white"/>
<path d="M20.2585 28.6836C21.7054 28.6836 22.8827 27.5008 22.8827 26.0469V22.5312C22.8827 22.1531 22.6409 21.8175 22.2823 21.6976L17.0214 19.9398C16.7638 19.8538 16.4812 19.8916 16.2553 20.0421L14.018 21.5336C11.617 20.3943 8.77912 17.5816 7.65037 15.2232L9.14134 12.9867C9.29187 12.7609 9.32966 12.4781 9.24365 12.2207L7.48583 6.95973C7.36601 6.60113 7.03033 6.35938 6.65222 6.35938H3.1366C1.68271 6.35938 0.499878 7.53658 0.499878 8.98361C0.499878 13.8397 2.70792 18.8236 6.55789 22.6575C10.4036 26.4871 15.3973 28.6836 20.2585 28.6836ZM3.1366 8.11719H6.01923L7.44013 12.3697L5.92097 14.6484C5.76042 14.8892 5.72873 15.1936 5.83625 15.4623C6.42072 16.9235 7.59037 18.5669 9.12968 20.0898C10.6589 21.6026 12.3103 22.7595 13.7797 23.3472C14.0484 23.4547 14.3529 23.423 14.5937 23.2625L16.8724 21.7433L21.1249 23.1642V26.0469C21.1249 26.5397 20.7443 26.9258 20.2585 26.9258C11.0057 26.9258 2.25769 18.2062 2.25769 8.98361C2.25769 8.49775 2.64376 8.11719 3.1366 8.11719Z" fill="white"/>
<path d="M16.9214 18.0698C17.2497 18.2059 17.6278 18.1306 17.8792 17.8793L21.1374 14.6211H24.2889C27.7136 14.6211 30.4999 11.8612 30.4999 8.46875C30.4999 5.07635 27.7136 2.31641 24.2889 2.31641H17.2577C13.8653 2.31641 11.1053 5.07635 11.1053 8.46875C11.1053 11.5628 13.4012 14.1307 16.3788 14.5585V17.2578C16.3788 17.6133 16.5929 17.9337 16.9214 18.0698ZM12.8632 8.46875C12.8632 6.04561 14.8345 4.07422 17.2577 4.07422H24.2889C26.7444 4.07422 28.7421 6.04561 28.7421 8.46875C28.7421 10.8919 26.7444 12.8633 24.2889 12.8633H20.7733C20.5402 12.8633 20.3166 12.9559 20.1519 13.1207L18.1366 15.136V13.7422C18.1366 13.2568 17.7431 12.8633 17.2577 12.8633C14.8345 12.8633 12.8632 10.8919 12.8632 8.46875Z" fill="white"/>
</g>
</g>
<defs>
<filter id="filter0_d_2411_36559" x="-14.5001" y="-14.6836" width="66" height="62.3672" filterUnits="userSpaceOnUse" color-interpolation-filters="sRGB">
<feFlood flood-opacity="0" result="BackgroundImageFix"/>
<feColorMatrix in="SourceAlpha" type="matrix" values="0 0 0 0 0 0 0 0 0 0 0 0 0 0 0 0 0 0 127 0" result="hardAlpha"/>
<feOffset dx="3" dy="1"/>
<feGaussianBlur stdDeviation="9"/>
<feComposite in2="hardAlpha" operator="out"/>
<feColorMatrix type="matrix" values="0 0 0 0 0 0 0 0 0 0 0 0 0 0 0 0 0 0 0.2 0"/>
<feBlend mode="normal" in2="BackgroundImageFix" result="effect1_dropShadow_2411_36559"/>
<feBlend mode="normal" in="SourceGraphic" in2="effect1_dropShadow_2411_36559" result="shape"/>
</filter>
<clipPath id="clip0_2411_36559">
<rect width="30" height="30" fill="white" transform="translate(0.499878 0.5)"/>
</clipPath>
</defs>
</svg>
