<svg width="25" height="25" viewBox="0 0 25 25" fill="none" xmlns="http://www.w3.org/2000/svg">
<g clip-path="url(#clip0_2615_3135)">
<path d="M22.105 7.71171L15.5747 7.10604L12.9806 1.08245C12.799 0.660669 12.201 0.660669 12.0194 1.08245L9.42534 7.10599L2.89501 7.71171C2.43773 7.75409 2.25297 8.32284 2.59794 8.62592L7.5251 12.9543L6.08315 19.3523C5.98217 19.8003 6.46601 20.1517 6.86084 19.9173L12.5 16.5689L18.1392 19.9173C18.5341 20.1518 19.0178 19.8003 18.9169 19.3523L17.4749 12.9543L22.4021 8.62592C22.7471 8.32284 22.5622 7.75409 22.105 7.71171Z" fill="#00730C"/>
<path d="M13.9239 3.27288L12.9806 1.08245C12.7989 0.660669 12.2009 0.660669 12.0193 1.08245L9.42529 7.10599L2.89501 7.71171C2.43773 7.75409 2.25297 8.32284 2.59794 8.62592L7.5251 12.9543L6.08315 19.3523C5.98217 19.8003 6.46601 20.1517 6.86084 19.9173L7.61138 19.4716C8.8418 11.5068 12.3009 5.65999 13.9239 3.27288Z" fill="#00730C"/>
</g>
<defs>
<clipPath id="clip0_2615_3135">
<rect width="25" height="25" fill="white"/>
</clipPath>
</defs>
</svg>
