<svg width="20" height="20" viewBox="0 0 20 20" fill="none" xmlns="http://www.w3.org/2000/svg">
<path d="M2.40002 9.5245C2.40002 9.91257 2.71457 10.2271 3.10264 10.2271H16.0226L11.5904 14.6552C11.4556 14.79 11.3861 14.9698 11.3861 15.1495C11.3861 15.3292 11.4556 15.509 11.5904 15.6438C11.8641 15.9175 12.3093 15.9175 12.583 15.6438L18.2039 10.0188C18.4654 9.75734 18.4654 9.29166 18.2039 9.02614L12.5789 3.40522C12.3053 3.13153 11.86 3.13153 11.5863 3.40522C11.3126 3.67891 11.3126 4.12418 11.5863 4.39787L16.0144 8.82597H3.09855C2.71048 8.82189 2.40002 9.13643 2.40002 9.5245Z" fill="#00730C"/>
</svg>
