<svg width="20" height="20" viewBox="0 0 20 20" fill="none" xmlns="http://www.w3.org/2000/svg">
<g clip-path="url(#clip0_2674_22595)">
<path d="M16.9999 9H11.0001V2.99994C11.0001 2.44806 10.552 2 9.99994 2C9.44806 2 9 2.44806 9 2.99994V9H2.99994C2.44806 9 2 9.44806 2 9.99994C2 10.552 2.44806 11.0001 2.99994 11.0001H9V16.9999C9 17.552 9.44806 18.0001 9.99994 18.0001C10.552 18.0001 11.0001 17.552 11.0001 16.9999V11.0001H16.9999C17.552 11.0001 18.0001 10.552 18.0001 9.99994C18.0001 9.44806 17.552 9 16.9999 9Z" fill="#212529"/>
</g>
<defs>
<clipPath id="clip0_2674_22595">
<rect width="20" height="20" fill="white"/>
</clipPath>
</defs>
</svg>
